<svg width="30" height="35" viewBox="0 0 30 35" fill="none" xmlns="http://www.w3.org/2000/svg">
<path d="M26.59 15.3C26.57 14.14 27.87 13.16 29.6 12.92C29.3 12.08 28.87 11.28 28.3 10.54C28.31 10.39 28.99 0.359985 26.01 0.359985C23.1 0.359985 19.77 5.85999 19.56 6.21999C19.56 6.22999 19.56 6.22998 19.56 6.23998C19.84 6.27998 20.11 6.31998 20.37 6.35998C19.99 7.70998 19.33 8.65999 18.83 8.54999C18.35 8.43999 18.18 7.38999 18.39 6.10998C17.96 6.06998 17.51 6.04998 17.05 6.02998C16.7 7.34999 15.31 10.29 14.74 10.29C14.15 10.29 11.95 7.71999 11.04 6.60998C10.77 6.67999 10.51 6.75999 10.25 6.84999C10.49 8.32999 10.09 9.62998 9.32002 9.76999C8.67002 9.88999 7.96002 9.13999 7.58002 8.01999C8.06002 7.74999 8.57002 7.49998 9.10002 7.27998C9.10002 7.27998 3.85001 1.48999 2.34001 2.24999C0.84001 2.99999 -0.66999 12.04 1.59001 13.55C1.80001 13.69 2.04002 13.75 2.30002 13.74C2.29002 13.77 2.28001 13.8 2.26001 13.83C3.21001 14.18 3.84002 14.76 3.71002 15.22C3.58002 15.7 2.70001 15.88 1.67001 15.68C1.52001 16.4 1.45001 17.11 1.47001 17.79C2.93001 17.54 4.22002 17.97 4.46002 18.84C4.69002 19.71 3.80001 20.73 2.42001 21.25C2.99001 22.4 3.62002 23.23 3.74002 23.4C3.75002 23.4 3.75001 23.4 3.76001 23.4C4.47001 22.39 5.60002 21.95 6.41002 22.41C7.21002 22.87 7.40001 24.06 6.90001 25.18C7.20001 25.27 7.52001 25.34 7.84001 25.4C7.65001 25.44 7.45001 25.49 7.25001 25.55C5.06001 26.21 2.66001 28.03 3.01001 29.22C3.33001 30.29 5.77001 30.5 7.84001 30.05C7.51001 30.94 7.27002 31.89 7.13002 32.89C8.74002 33.67 10.46 34.24 12.27 34.57C12.47 31.54 14.07 29.17 16.02 29.17C17.97 29.17 19.57 31.53 19.77 34.56C21.32 34.27 22.82 33.8 24.23 33.18C24.06 31.7 23.66 30.32 23.09 29.09C23.1 29.1 23.12 29.1 23.13 29.11C25.18 30.11 28.18 30.4 28.73 29.28C29.27 28.16 27.16 26.04 25.1 25.04C24.64 24.82 24.18 24.65 23.73 24.53C26.19 23.61 27.98 22.14 29.03 20.33C29.02 20.33 29.02 20.32 29.01 20.32C28.3 20.09 27.83 19.7 27.86 19.31C27.91 18.82 28.75 18.5 29.79 18.53C29.88 18.23 29.95 17.91 30.01 17.6C28.11 17.53 26.6 16.53 26.59 15.3ZM6.32002 8.87999C4.58002 10.13 3.30002 11.68 2.49002 13.31C2.35002 13.35 2.22001 13.33 2.11001 13.26C1.03001 12.54 1.90002 4.11999 2.71002 4.11999C4.21002 4.11999 6.47001 8.63999 6.47001 8.63999C6.47001 8.63999 6.42002 8.71999 6.32002 8.87999ZM20.34 25.4C20.33 25.39 20.32 25.39 20.32 25.38C20.33 25.38 20.34 25.38 20.35 25.37C20.35 25.39 20.34 25.4 20.34 25.4ZM25.84 12.1C25.28 11.78 25.53 10.29 26.39 8.72998C25.37 7.97998 24.11 7.34999 22.6 6.88999C22.6 6.87999 22.6 6.87999 22.6 6.87999C22.6 6.87999 24.51 1.85999 25.26 1.85999C26.01 1.85999 26.89 2.50999 27.58 9.70999C27.8 9.92999 28 10.16 28.19 10.39C27.33 11.65 26.35 12.39 25.84 12.1Z" fill="white"/>
</svg>
