<svg width="31" height="35" viewBox="0 0 31 35" fill="none" xmlns="http://www.w3.org/2000/svg">
<g clip-path="url(#clip0_403_5524)">
<path d="M18.0315 16.1727C19.2861 16.1727 20.3032 15.8307 20.3032 15.4088C20.3032 14.9869 19.2861 14.6449 18.0315 14.6449C16.7768 14.6449 15.7598 14.9869 15.7598 15.4088C15.7598 15.8307 16.7768 16.1727 18.0315 16.1727Z" fill="#1976D2"/>
<path d="M17.3128 19.4815C17.1457 19.4815 16.9829 19.4435 16.8325 19.3633C16.4233 19.1481 16.1895 18.6796 16.1895 18.0761H16.6822C16.6822 18.4855 16.82 18.7936 17.0622 18.9202C17.2501 19.0172 17.4798 18.9961 17.6636 18.8653C17.9308 18.6754 18.0519 18.3124 17.9935 17.8651V17.8482L17.8932 16.0883L18.386 16.0587L18.4862 17.8102C18.5656 18.4433 18.3693 18.9793 17.9475 19.2747C17.7554 19.4097 17.5341 19.4815 17.3128 19.4815Z" fill="#1976D2"/>
<path d="M19.178 19.3338C19.011 19.3338 18.8481 19.2958 18.6978 19.2156C18.2885 19.0004 18.0547 18.5319 18.0547 17.9284H18.5474C18.5474 18.3378 18.6853 18.6459 18.9275 18.7725C19.1154 18.8695 19.3451 18.8484 19.5288 18.7176C19.7961 18.5277 19.9172 18.1647 19.8587 17.7174L20.3473 17.6541C20.4308 18.2913 20.2345 18.8273 19.8128 19.127C19.6207 19.262 19.3993 19.3338 19.178 19.3338Z" fill="#1976D2"/>
<path d="M12.0214 15.9743C12.6717 15.9743 13.199 15.1769 13.199 14.1933C13.199 13.2097 12.6717 12.4123 12.0214 12.4123C11.371 12.4123 10.8438 13.2097 10.8438 14.1933C10.8438 15.1769 11.371 15.9743 12.0214 15.9743Z" fill="#1976D2"/>
<path d="M22.9784 15.3539C23.6288 15.3539 24.156 14.5565 24.156 13.5729C24.156 12.5893 23.6288 11.7919 22.9784 11.7919C22.328 11.7919 21.8008 12.5893 21.8008 13.5729C21.8008 14.5565 22.328 15.3539 22.9784 15.3539Z" fill="#1976D2"/>
<g clip-path="url(#clip1_403_5524)">
<path d="M21.1613 25.606C25.4957 24.9993 28.4921 23.0608 29.998 20.4488C29.9929 20.4437 29.9878 20.4437 29.9827 20.4385C29.2603 20.202 28.7821 19.8061 28.8228 19.4102C28.8737 18.9114 29.7232 18.5772 30.7814 18.6132C30.873 18.2995 30.9442 17.9859 31.0002 17.662C29.0619 17.5746 27.5357 16.5513 27.5204 15.2865C27.5052 14.0987 28.8228 13.0961 30.5779 12.8544C30.2727 11.9957 29.8403 11.1782 29.2603 10.4172C29.2705 10.263 29.9623 0 26.9354 0C23.9847 0 20.6118 5.63023 20.3931 5.9953C20.3931 6.00044 20.3931 6.01072 20.3931 6.01587C20.6729 6.05186 20.9476 6.09299 21.2172 6.13927C20.8357 7.51726 20.1641 8.4942 19.6554 8.37594C19.1721 8.26282 18.9991 7.19333 19.2077 5.88218C18.7651 5.84619 18.3124 5.81534 17.8443 5.79991C17.4882 7.1522 16.079 10.1601 15.5041 10.1601C14.9038 10.1601 12.6807 7.52755 11.7497 6.4015C11.475 6.47348 11.2104 6.55575 10.951 6.64316C11.1952 8.15998 10.7831 9.48656 10.0098 9.63053C9.34848 9.75393 8.63625 8.99295 8.23944 7.83605C8.72273 7.5584 9.24164 7.30645 9.78599 7.07507C9.78599 7.07507 9.78599 7.07507 9.7809 7.07507C9.7809 7.07507 4.45446 1.1569 2.92826 1.92302C1.40206 2.69429 -0.119049 11.9392 2.16516 13.4766C2.37883 13.6205 2.62302 13.6822 2.88756 13.672C2.8723 13.7028 2.86213 13.7337 2.85195 13.7645C3.81346 14.1193 4.45446 14.7106 4.32728 15.1836C4.2001 15.6721 3.29964 15.8572 2.25674 15.6515C2.09903 16.3868 2.03289 17.1169 2.05833 17.8162C3.54383 17.5591 4.85127 17.9962 5.09038 18.896C5.32948 19.7907 4.42394 20.8293 3.01983 21.3589C3.5947 22.5312 4.23571 23.3899 4.35272 23.5647C4.3578 23.5647 4.36289 23.5647 4.36798 23.5647C5.08529 22.5312 6.24012 22.0787 7.05409 22.5518C7.86297 23.0248 8.05629 24.2434 7.54756 25.3849C8.71765 25.7191 10.0149 25.8528 11.3834 25.8991C9.53162 27.6113 8.20383 30.2387 7.78666 33.2775C9.41461 34.0745 11.1647 34.6606 13.0012 35C13.1996 31.8944 14.8275 29.4777 16.8065 29.4777C18.7855 29.4777 20.4083 31.8944 20.6118 34.9949C22.1889 34.6966 23.7049 34.2185 25.1345 33.5809C24.7326 30.2284 23.2471 27.3542 21.1613 25.606ZM26.1723 1.54253C26.9354 1.54253 27.8206 2.20582 28.5226 9.57397C28.7465 9.80021 28.9551 10.0316 29.1433 10.2732C28.2734 11.5587 27.2762 12.3197 26.7675 12.0214C26.1977 11.6924 26.4521 10.1653 27.322 8.57647C26.2842 7.81034 25.0124 7.16762 23.476 6.69458C23.476 6.6843 23.476 6.67915 23.476 6.67915C23.476 6.67915 25.4143 1.54253 26.1723 1.54253ZM6.9676 8.72044C5.2023 9.99559 3.91012 11.5895 3.08597 13.2503C2.93844 13.2863 2.81125 13.276 2.70442 13.2041C1.60556 12.4585 2.49075 3.85118 3.30981 3.85118C4.83601 3.85118 7.12022 8.47363 7.12022 8.47363C7.12022 8.47363 7.06426 8.56104 6.9676 8.72044Z" fill="white"/>
<path d="M21.1252 18.9731C20.9726 17.5745 18.1492 18.063 17.4013 18.2172L17.3199 16.4022C18.1746 16.2634 18.8054 15.7852 18.7495 15.2967C18.6935 14.7774 17.8948 14.4432 16.9689 14.5512C16.043 14.654 15.3409 15.163 15.3969 15.6772C15.4478 16.1143 16.0226 16.4228 16.7654 16.4382L16.8519 18.3252C16.394 18.3869 15.6309 18.4178 15.2697 18.0064C14.7356 17.3997 12.8736 17.5385 12.2529 18.9731C11.6323 20.4076 13.1381 23.4618 13.6723 23.7292C14.2065 23.9966 18.2 24.1765 19.5329 23.7292C20.8607 23.2819 21.3033 20.5876 21.1252 18.9731Z" fill="#1976D2"/>
<path d="M19.1976 23.6418C18.2158 23.8115 15.9926 23.9811 15.0565 23.7909C14.7513 23.7292 14.5987 23.3796 14.7615 23.107C15.4228 21.9964 18.1445 21.1995 19.2434 22.8243C19.4265 23.0968 19.5232 23.5904 19.1976 23.6418Z" fill="white"/>
<path d="M24.1769 11.9648L23.6885 9.81044C23.6325 9.56364 23.3171 9.48651 23.1543 9.6819L21.7604 11.3838C21.6943 11.4609 21.5976 11.5021 21.4959 11.4969L19.3185 11.3016C19.0641 11.281 18.8962 11.5586 19.0336 11.7746L20.2037 13.6411C20.2596 13.7285 20.2647 13.8364 20.2291 13.929L19.3694 15.96C19.2676 16.1965 19.4813 16.4433 19.7255 16.3816L21.8418 15.8314C21.9385 15.8057 22.0402 15.8314 22.1165 15.8983L23.7648 17.3483C23.953 17.5179 24.2532 17.3894 24.2685 17.1375L24.4058 14.9316C24.4109 14.8288 24.4669 14.7363 24.5533 14.6848L26.4306 13.5485C26.6493 13.4148 26.6239 13.0909 26.3848 12.9983L24.3498 12.1859C24.2685 12.1448 24.2023 12.0625 24.1769 11.9648Z" fill="#1976D2"/>
<path d="M8.51876 12.6641L9.00715 10.5097C9.06311 10.2629 9.37852 10.1858 9.54132 10.3812L10.9352 12.0831C11.0014 12.1602 11.098 12.2014 11.1998 12.1962L13.3772 12.0008C13.6315 11.9803 13.7994 12.2579 13.6621 12.4739L12.492 14.3403C12.436 14.4277 12.4309 14.5357 12.4665 14.6283L13.3263 16.6593C13.428 16.8958 13.2144 17.1426 12.9702 17.0809L10.8538 16.5307C10.7572 16.505 10.6554 16.5307 10.5791 16.5976L8.93084 18.0475C8.74261 18.2172 8.44245 18.0887 8.42719 17.8367L8.28983 15.6309C8.28475 15.5281 8.22879 15.4355 8.1423 15.3841L6.26508 14.2478C6.04632 14.1141 6.07176 13.7902 6.31086 13.6976L8.34579 12.8852C8.42719 12.8441 8.49841 12.7618 8.51876 12.6641Z" fill="#1976D2"/>
</g>
</g>
<defs>
<clipPath id="clip0_403_5524">
<rect width="30" height="35" fill="white" transform="translate(0.5)"/>
</clipPath>
<clipPath id="clip1_403_5524">
<rect width="30" height="35" fill="white" transform="translate(1)"/>
</clipPath>
</defs>
</svg>
