<svg width="276" height="98" viewBox="0 0 276 98" fill="none" xmlns="http://www.w3.org/2000/svg">
<path d="M271.923 97.8714H79.3722C77.2051 97.8714 75.4233 96.1204 75.4233 93.9697V70.2173C75.4233 68.0762 77.1955 66.3157 79.3722 66.3157H271.933C274.1 66.3157 275.881 68.0667 275.881 70.2173V93.9697C275.872 96.1109 274.1 97.8714 271.923 97.8714Z" fill="white"/>
<path d="M20.0139 83.1116C20.0139 83.7873 19.8502 84.5105 19.5131 85.2908C19.176 86.0712 18.6559 86.842 17.9335 87.5938C17.2112 88.3455 16.2962 88.9546 15.179 89.4304C14.0617 89.8967 12.7615 90.1346 11.2782 90.1346C10.1514 90.1346 9.13044 90.0299 8.20583 89.8205C7.28121 89.6112 6.44328 89.2781 5.69203 88.8309C4.94079 88.3836 4.24733 87.7936 3.61165 87.0704C3.05303 86.4042 2.57146 85.6715 2.16695 84.8436C1.77206 84.0252 1.47349 83.1497 1.27123 82.2171C1.06897 81.2845 0.972656 80.2948 0.972656 79.2481C0.972656 77.5542 1.22307 76.0316 1.7239 74.6898C2.22474 73.348 2.93746 72.1966 3.8717 71.245C4.80595 70.2933 5.89429 69.5606 7.14638 69.0657C8.39846 68.5709 9.73722 68.314 11.153 68.314C12.8771 68.314 14.4181 68.6565 15.7665 69.3322C17.1149 70.0174 18.155 70.8548 18.8678 71.854C19.5901 72.8532 19.9465 73.8048 19.9465 74.6993C19.9465 75.1847 19.7731 75.6224 19.4264 75.9935C19.0797 76.3647 18.6559 76.555 18.1551 76.555C17.6061 76.555 17.1823 76.4218 16.9126 76.1648C16.6333 75.9079 16.3251 75.4606 15.988 74.823C15.4294 73.7763 14.7648 72.9959 14.0039 72.4725C13.243 71.9587 12.2992 71.6922 11.1819 71.6922C9.40012 71.6922 7.99394 72.3583 6.93448 73.6906C5.88466 75.0229 5.35494 76.9166 5.35494 79.3718C5.35494 81.0086 5.58609 82.3789 6.05803 83.4637C6.52033 84.5486 7.1849 85.367 8.04209 85.8999C8.89929 86.4328 9.90095 86.7088 11.0471 86.7088C12.2895 86.7088 13.3394 86.4042 14.1966 85.7952C15.0537 85.1862 15.7087 84.2916 16.1421 83.1116C16.3251 82.5597 16.5562 82.1029 16.8259 81.7508C17.0956 81.3987 17.5386 81.2274 18.1358 81.2274C18.6463 81.2274 19.0893 81.4082 19.4649 81.7603C19.8309 82.141 20.0139 82.5787 20.0139 83.1116Z" fill="white"/>
<path d="M27.3627 70.7027V76.5361C27.8635 75.9651 28.3643 75.5083 28.8459 75.1658C29.3275 74.8327 29.8572 74.5758 30.4447 74.414C31.0226 74.2427 31.6583 74.1666 32.3228 74.1666C33.3341 74.1666 34.2298 74.3759 35.01 74.8041C35.7901 75.2229 36.4065 75.8414 36.8496 76.6503C37.1289 77.1166 37.3215 77.6495 37.4178 78.23C37.5141 78.8105 37.5623 79.4766 37.5623 80.2379V87.7652C37.5623 88.555 37.3793 89.145 37.0133 89.5542C36.6473 89.9539 36.1658 90.1633 35.5686 90.1633C34.2587 90.1633 33.6038 89.3639 33.6038 87.7747V81.1419C33.6038 79.8858 33.4112 78.9151 33.0355 78.2395C32.6599 77.5638 31.9376 77.2213 30.8781 77.2213C30.1654 77.2213 29.5297 77.4211 28.9615 77.8208C28.3932 78.2205 27.9694 78.7629 27.6901 79.4576C27.4782 80.0476 27.3723 81.0848 27.3723 82.5789V87.7747C27.3723 88.555 27.1989 89.145 26.8426 89.5542C26.4862 89.9634 25.995 90.1633 25.3593 90.1633C24.0495 90.1633 23.3945 89.3639 23.3945 87.7747V70.7312C23.3945 69.9319 23.5679 69.3418 23.9146 68.9422C24.2614 68.5425 24.7429 68.3427 25.3593 68.3427C25.995 68.3427 26.4862 68.5425 26.8426 68.9517C27.1893 69.3228 27.3627 69.9128 27.3627 70.7027Z" fill="white"/>
<path d="M43.3606 72.3299C42.8116 72.3299 42.3301 72.1586 41.9448 71.8255C41.5499 71.4925 41.3573 71.0167 41.3573 70.3981C41.3573 69.8462 41.5595 69.3799 41.9641 69.0278C42.3686 68.6662 42.8309 68.4854 43.3702 68.4854C43.8807 68.4854 44.343 68.6471 44.7379 68.9707C45.1328 69.2942 45.3351 69.77 45.3351 70.3981C45.3351 71.0071 45.1424 71.4734 44.7572 71.816C44.3526 72.1586 43.8903 72.3299 43.3606 72.3299ZM45.3254 76.3838V87.7366C45.3254 88.5264 45.1328 89.1164 44.7572 89.5256C44.3815 89.9348 43.9 90.1347 43.3125 90.1347C42.7249 90.1347 42.253 89.9253 41.8966 89.5161C41.5307 89.1069 41.3477 88.5169 41.3477 87.7461V76.5075C41.3477 75.7272 41.5307 75.1467 41.8966 74.747C42.2626 74.3568 42.7346 74.157 43.3125 74.157C43.8903 74.157 44.3719 74.3568 44.7572 74.747C45.1328 75.1372 45.3254 75.6891 45.3254 76.3838Z" fill="white"/>
<path d="M49.2837 87.7461V70.7026C49.2837 69.9128 49.4571 69.3228 49.8134 68.9136C50.1698 68.5139 50.6417 68.3046 51.2485 68.3046C51.8553 68.3046 52.3368 68.5044 52.7028 68.9041C53.0688 69.3038 53.2518 69.9033 53.2518 70.6931V87.7366C53.2518 88.536 53.0688 89.126 52.6932 89.5257C52.3176 89.9253 51.836 90.1252 51.2485 90.1252C50.6706 90.1252 50.189 89.9158 49.8327 89.5066C49.4667 89.0974 49.2837 88.5074 49.2837 87.7461Z" fill="white"/>
<path d="M68.1133 87.8889V87.4987C67.5835 88.1078 67.0538 88.5931 66.5337 88.9737C66.0136 89.3544 65.455 89.6399 64.8482 89.8397C64.2414 90.0395 63.5769 90.1347 62.8641 90.1347C61.9106 90.1347 61.0342 89.9349 60.2252 89.5352C59.4161 89.1355 58.713 88.5645 58.1159 87.8318C57.5187 87.0895 57.0757 86.2236 56.7675 85.2244C56.4593 84.2252 56.3052 83.1498 56.3052 81.9889C56.3052 79.5337 56.912 77.6209 58.1255 76.2506C59.3391 74.8803 60.9379 74.1951 62.9219 74.1951C64.0681 74.1951 65.0312 74.3854 65.821 74.7756C66.6108 75.1657 67.3716 75.7653 68.1229 76.5646V70.7693C68.1229 69.9604 68.2866 69.3514 68.6141 68.9422C68.9416 68.533 69.4039 68.3236 70.001 68.3236C70.6078 68.3236 71.0701 68.5139 71.3879 68.8946C71.7154 69.2752 71.8791 69.8367 71.8791 70.5694V87.8984C71.8791 88.6502 71.7058 89.2116 71.359 89.5828C71.0123 89.9539 70.5596 90.1442 70.001 90.1442C69.4617 90.1442 69.009 89.9539 68.6526 89.5637C68.2866 89.1641 68.1133 88.6026 68.1133 87.8889ZM60.2926 82.1126C60.2926 83.1784 60.4563 84.0824 60.7934 84.8342C61.1305 85.586 61.5832 86.1474 62.1707 86.5281C62.7486 86.9087 63.3939 87.099 64.0777 87.099C64.7808 87.099 65.4165 86.9182 65.9943 86.5566C66.5722 86.195 67.0345 85.6431 67.3813 84.9008C67.728 84.1585 67.9014 83.226 67.9014 82.1126C67.9014 81.0658 67.728 80.1713 67.3813 79.41C67.0345 78.6582 66.5722 78.0777 65.9847 77.6875C65.3972 77.2879 64.7519 77.088 64.0584 77.088C63.3265 77.088 62.6812 77.2879 62.1033 77.6971C61.5254 78.1062 61.0823 78.6867 60.7741 79.4575C60.4467 80.2284 60.2926 81.1134 60.2926 82.1126Z" fill="white"/>
<path d="M89.6779 81.4369H85.7579V87.3369C85.7579 88.1839 85.5557 88.8214 85.1511 89.2592C84.7466 89.6969 84.2362 89.9158 83.6294 89.9158C82.9841 89.9158 82.464 89.6969 82.0787 89.2687C81.6838 88.8405 81.4912 88.2029 81.4912 87.3655V71.2926C81.4912 70.36 81.7031 69.7034 82.1365 69.3037C82.5699 68.9041 83.2538 68.7042 84.1976 68.7042H89.6875C91.3056 68.7042 92.5577 68.8279 93.4341 69.0754C94.301 69.3133 95.0426 69.7034 95.6686 70.2554C96.2947 70.8073 96.7762 71.4829 97.1037 72.2728C97.4312 73.0722 97.5949 73.9667 97.5949 74.9659C97.5949 77.088 96.9303 78.6962 95.6108 79.8001C94.2721 80.8849 92.2976 81.4369 89.6779 81.4369ZM88.6473 71.8731H85.7675V78.249H88.6473C89.6586 78.249 90.4966 78.1443 91.1708 77.9349C91.845 77.7256 92.3651 77.383 92.7214 76.9072C93.0778 76.4314 93.2511 75.8128 93.2511 75.042C93.2511 74.1189 92.9815 73.3767 92.4325 72.7962C91.8161 72.1776 90.5544 71.8731 88.6473 71.8731Z" fill="#2979FF"/>
<path d="M104.636 84.3108V87.5558C104.636 88.3457 104.453 88.9357 104.077 89.3258C103.701 89.716 103.229 89.9158 102.652 89.9158C102.083 89.9158 101.621 89.716 101.255 89.3163C100.889 88.9166 100.706 88.3266 100.706 87.5558V76.7454C100.706 75.004 101.342 74.1285 102.623 74.1285C103.278 74.1285 103.75 74.3283 104.039 74.7375C104.327 75.1467 104.482 75.7462 104.51 76.5456C104.982 75.7462 105.464 75.1467 105.955 74.7375C106.446 74.3283 107.111 74.1285 107.939 74.1285C108.768 74.1285 109.567 74.3283 110.347 74.7375C111.127 75.1467 111.512 75.6891 111.512 76.3553C111.512 76.8311 111.349 77.2212 111.012 77.5258C110.684 77.8303 110.318 77.992 109.943 77.992C109.798 77.992 109.451 77.9064 108.902 77.7256C108.353 77.5543 107.862 77.4591 107.438 77.4591C106.861 77.4591 106.389 77.6114 106.023 77.9064C105.657 78.2014 105.377 78.6487 105.175 79.2387C104.973 79.8287 104.838 80.5234 104.761 81.3418C104.674 82.1506 104.636 83.1403 104.636 84.3108Z" fill="#2979FF"/>
<path d="M127.096 82.0174C127.096 83.1784 126.913 84.2442 126.547 85.2148C126.181 86.195 125.651 87.0324 124.967 87.7366C124.274 88.4408 123.455 88.9737 122.492 89.3544C121.529 89.7255 120.45 89.9158 119.256 89.9158C118.061 89.9158 116.992 89.7255 116.048 89.3449C115.095 88.9642 114.276 88.4218 113.583 87.7176C112.889 87.0134 112.36 86.176 112.003 85.2148C111.647 84.2537 111.464 83.1879 111.464 82.0174C111.464 80.8374 111.647 79.7621 112.013 78.7914C112.379 77.8112 112.899 76.9833 113.583 76.2887C114.267 75.594 115.085 75.0611 116.058 74.6899C117.031 74.3188 118.1 74.1285 119.265 74.1285C120.46 74.1285 121.538 74.3188 122.501 74.6994C123.474 75.0801 124.303 75.6225 124.996 76.3172C125.689 77.0214 126.21 77.8493 126.576 78.82C126.942 79.7906 127.096 80.8469 127.096 82.0174ZM123.147 82.0174C123.147 80.4377 122.79 79.2006 122.087 78.3156C121.384 77.4306 120.431 76.9929 119.246 76.9929C118.476 76.9929 117.801 77.1927 117.214 77.5829C116.626 77.973 116.174 78.5535 115.856 79.3243C115.538 80.0951 115.384 80.9897 115.384 82.0174C115.384 83.0356 115.538 83.9206 115.856 84.6819C116.164 85.4432 116.617 86.0237 117.195 86.4234C117.772 86.8231 118.456 87.0324 119.246 87.0324C120.44 87.0324 121.384 86.5852 122.087 85.7002C122.8 84.8056 123.147 83.5781 123.147 82.0174Z" fill="#2979FF"/>
<path d="M144.5 76.9643V88.241C144.5 89.5352 144.365 90.6391 144.086 91.5716C143.806 92.5042 143.363 93.2655 142.747 93.8746C142.13 94.4836 141.331 94.9309 140.339 95.2259C139.347 95.5209 138.114 95.6636 136.631 95.6636C135.273 95.6636 134.069 95.4733 133 95.1022C131.931 94.731 131.112 94.2457 130.534 93.6557C129.956 93.0657 129.667 92.4566 129.667 91.8286C129.667 91.3528 129.831 90.9721 130.159 90.6676C130.486 90.3726 130.881 90.2203 131.343 90.2203C131.921 90.2203 132.422 90.4678 132.855 90.9721C133.067 91.2291 133.289 91.486 133.51 91.7429C133.732 91.9999 133.982 92.2283 134.262 92.4091C134.531 92.5899 134.868 92.7326 135.244 92.8183C135.629 92.9039 136.072 92.9515 136.573 92.9515C137.594 92.9515 138.384 92.8088 138.942 92.5328C139.501 92.2568 139.896 91.8571 140.127 91.3623C140.349 90.8579 140.484 90.325 140.522 89.7445C140.561 89.1736 140.589 88.2505 140.609 86.9753C140.002 87.8128 139.308 88.4408 138.509 88.8786C137.719 89.3163 136.775 89.5352 135.677 89.5352C134.358 89.5352 133.212 89.2021 132.229 88.536C131.247 87.8698 130.486 86.9468 129.966 85.7477C129.436 84.5487 129.176 83.1689 129.176 81.6082C129.176 80.4377 129.34 79.3909 129.658 78.4488C129.976 77.5067 130.438 76.7169 131.035 76.0698C131.632 75.4227 132.316 74.9374 133.096 74.6138C133.876 74.2902 134.724 74.119 135.658 74.119C136.775 74.119 137.739 74.3283 138.548 74.7565C139.366 75.1752 140.118 75.8414 140.821 76.7454V76.222C140.821 75.5464 140.984 75.023 141.321 74.6614C141.659 74.2902 142.092 74.1094 142.622 74.1094C143.383 74.1094 143.883 74.3569 144.134 74.8422C144.375 75.3465 144.5 76.0507 144.5 76.9643ZM133.106 81.8842C133.106 83.4543 133.453 84.6534 134.146 85.4527C134.84 86.2616 135.745 86.6613 136.843 86.6613C137.498 86.6613 138.114 86.49 138.692 86.1379C139.27 85.7953 139.742 85.2719 140.108 84.5772C140.474 83.8826 140.657 83.0356 140.657 82.0364C140.657 80.4567 140.301 79.2196 139.597 78.3346C138.894 77.4496 137.96 77.0119 136.814 77.0119C135.687 77.0119 134.791 77.4306 134.117 78.2775C133.443 79.134 133.106 80.333 133.106 81.8842Z" fill="#2979FF"/>
<path d="M151.839 84.3108V87.5558C151.839 88.3457 151.656 88.9357 151.28 89.3258C150.905 89.716 150.433 89.9158 149.855 89.9158C149.286 89.9158 148.824 89.716 148.458 89.3163C148.092 88.9166 147.909 88.3266 147.909 87.5558V76.7454C147.909 75.004 148.545 74.1285 149.826 74.1285C150.481 74.1285 150.953 74.3283 151.242 74.7375C151.531 75.1467 151.685 75.7462 151.714 76.5456C152.186 75.7462 152.667 75.1467 153.158 74.7375C153.649 74.3283 154.314 74.1285 155.142 74.1285C155.971 74.1285 156.77 74.3283 157.55 74.7375C158.33 75.1467 158.716 75.6891 158.716 76.3553C158.716 76.8311 158.552 77.2212 158.215 77.5258C157.887 77.8303 157.521 77.992 157.146 77.992C157.001 77.992 156.654 77.9064 156.105 77.7256C155.556 77.5543 155.065 77.4591 154.642 77.4591C154.064 77.4591 153.592 77.6114 153.226 77.9064C152.86 78.2014 152.58 78.6487 152.378 79.2387C152.176 79.8287 152.041 80.5234 151.964 81.3418C151.877 82.1506 151.839 83.1403 151.839 84.3108Z" fill="#2979FF"/>
<path d="M169.907 87.7176C168.954 88.4503 168.039 88.9928 167.153 89.3639C166.267 89.7255 165.265 89.9158 164.167 89.9158C163.156 89.9158 162.27 89.716 161.509 89.3258C160.748 88.9356 160.16 88.4027 159.746 87.7271C159.332 87.0514 159.13 86.3282 159.13 85.5384C159.13 84.4726 159.467 83.5685 160.151 82.8167C160.835 82.065 161.769 81.5606 162.963 81.3132C163.214 81.2561 163.83 81.1324 164.822 80.9325C165.814 80.7327 166.662 80.5519 167.365 80.3806C168.068 80.2188 168.838 80.0095 169.657 79.7716C169.609 78.7438 169.397 77.992 169.031 77.5162C168.665 77.0404 167.894 76.8025 166.739 76.8025C165.737 76.8025 164.986 76.9357 164.485 77.2117C163.984 77.4877 163.551 77.8969 163.185 78.4488C162.828 79.0008 162.568 79.3624 162.424 79.5337C162.279 79.7049 161.952 79.8001 161.47 79.8001C161.027 79.8001 160.652 79.6574 160.324 79.3814C160.006 79.1054 159.843 78.7438 159.843 78.3061C159.843 77.6209 160.083 76.9548 160.575 76.3172C161.066 75.6701 161.827 75.1372 162.867 74.728C163.907 74.3093 165.198 74.0999 166.739 74.0999C168.463 74.0999 169.821 74.2998 170.813 74.709C171.805 75.1086 172.498 75.7462 172.912 76.6217C173.317 77.4972 173.529 78.6486 173.529 80.0951C173.529 81.0087 173.529 81.7795 173.519 82.4171C173.51 83.0546 173.51 83.7588 173.5 84.5392C173.5 85.2719 173.625 86.0332 173.866 86.8231C174.107 87.6129 174.232 88.1268 174.232 88.3552C174.232 88.7548 174.039 89.1165 173.664 89.44C173.288 89.7636 172.855 89.9348 172.373 89.9348C171.969 89.9348 171.574 89.7445 171.179 89.3734C170.765 88.9737 170.341 88.4313 169.907 87.7176ZM169.647 82.103C169.069 82.3124 168.232 82.5313 167.134 82.7692C166.036 82.9976 165.275 83.1688 164.851 83.283C164.427 83.3877 164.023 83.6066 163.637 83.9206C163.252 84.2347 163.059 84.6819 163.059 85.2529C163.059 85.8429 163.281 86.3377 163.734 86.7564C164.186 87.1656 164.774 87.375 165.506 87.375C166.286 87.375 166.999 87.2037 167.654 86.8706C168.309 86.5376 168.79 86.0998 169.098 85.5669C169.455 84.9769 169.628 84.0158 169.628 82.6645V82.103H169.647Z" fill="#2979FF"/>
<path d="M190.422 82.3029V87.4702C190.422 88.2886 190.239 88.8976 189.864 89.3068C189.488 89.716 188.997 89.9158 188.38 89.9158C187.783 89.9158 187.302 89.716 186.936 89.3068C186.57 88.8976 186.377 88.2886 186.377 87.4702V81.2846C186.377 80.3045 186.339 79.5527 186.281 79.0103C186.213 78.4679 186.03 78.0301 185.732 77.678C185.433 77.3354 184.961 77.1546 184.316 77.1546C183.025 77.1546 182.178 77.5924 181.773 78.4679C181.369 79.3433 181.157 80.59 181.157 82.2268V87.4797C181.157 88.2886 180.974 88.8976 180.598 89.3068C180.232 89.716 179.741 89.9253 179.134 89.9253C178.537 89.9253 178.056 89.716 177.67 89.3068C177.295 88.8976 177.102 88.2886 177.102 87.4797V76.3648C177.102 75.632 177.275 75.0801 177.613 74.6994C177.95 74.3188 178.402 74.1285 178.961 74.1285C179.5 74.1285 179.943 74.3093 180.309 74.6614C180.666 75.0135 180.849 75.5083 180.849 76.1364V76.5075C181.532 75.6986 182.264 75.1086 183.035 74.728C183.815 74.3473 184.672 74.157 185.626 74.157C186.618 74.157 187.465 74.3474 188.178 74.7375C188.891 75.1277 189.478 75.7177 189.931 76.498C190.596 75.6986 191.308 75.1086 192.06 74.728C192.82 74.3473 193.658 74.1475 194.583 74.1475C195.662 74.1475 196.586 74.3569 197.366 74.7756C198.147 75.1943 198.725 75.7938 199.11 76.5646C199.447 77.2688 199.611 78.3727 199.611 79.8763V87.4607C199.611 88.279 199.428 88.8881 199.052 89.2973C198.676 89.7065 198.185 89.9063 197.569 89.9063C196.972 89.9063 196.49 89.697 196.105 89.2878C195.729 88.8786 195.537 88.2695 195.537 87.4607V80.9326C195.537 80.0951 195.498 79.429 195.431 78.9246C195.363 78.4203 195.161 78.0016 194.843 77.659C194.525 77.3164 194.044 77.1451 193.408 77.1451C192.888 77.1451 192.397 77.2974 191.934 77.6019C191.472 77.9064 191.106 78.3156 190.846 78.8295C190.567 79.4861 190.422 80.6375 190.422 82.3029Z" fill="#2979FF"/>
<path d="M216.36 82.3029V87.4702C216.36 88.2886 216.177 88.8976 215.801 89.3068C215.426 89.716 214.934 89.9158 214.318 89.9158C213.721 89.9158 213.239 89.716 212.873 89.3068C212.507 88.8976 212.315 88.2886 212.315 87.4702V81.2846C212.315 80.3045 212.276 79.5527 212.218 79.0103C212.151 78.4679 211.968 78.0301 211.669 77.678C211.371 77.3354 210.899 77.1546 210.253 77.1546C208.963 77.1546 208.115 77.5924 207.711 78.4679C207.306 79.3433 207.094 80.59 207.094 82.2268V87.4797C207.094 88.2886 206.911 88.8976 206.536 89.3068C206.17 89.716 205.679 89.9253 205.072 89.9253C204.475 89.9253 203.993 89.716 203.608 89.3068C203.232 88.8976 203.04 88.2886 203.04 87.4797V76.3648C203.04 75.632 203.213 75.0801 203.55 74.6994C203.887 74.3188 204.34 74.1285 204.898 74.1285C205.438 74.1285 205.881 74.3093 206.247 74.6614C206.603 75.0135 206.786 75.5083 206.786 76.1364V76.5075C207.47 75.6986 208.202 75.1086 208.973 74.728C209.753 74.3473 210.61 74.157 211.563 74.157C212.555 74.157 213.403 74.3474 214.116 74.7375C214.828 75.1277 215.416 75.7177 215.869 76.498C216.533 75.6986 217.246 75.1086 217.997 74.728C218.758 74.3473 219.596 74.1475 220.521 74.1475C221.599 74.1475 222.524 74.3569 223.304 74.7756C224.084 75.1943 224.662 75.7938 225.047 76.5646C225.384 77.2688 225.548 78.3727 225.548 79.8763V87.4607C225.548 88.279 225.365 88.8881 224.989 89.2973C224.614 89.7065 224.123 89.9063 223.506 89.9063C222.909 89.9063 222.428 89.697 222.042 89.2878C221.667 88.8786 221.474 88.2695 221.474 87.4607V80.9326C221.474 80.0951 221.436 79.429 221.368 78.9246C221.301 78.4203 221.098 78.0016 220.781 77.659C220.463 77.3164 219.981 77.1451 219.346 77.1451C218.825 77.1451 218.334 77.2974 217.872 77.6019C217.41 77.9064 217.044 78.3156 216.784 78.8295C216.504 79.4861 216.36 80.6375 216.36 82.3029Z" fill="#2979FF"/>
<path d="M231.211 72.3109C230.662 72.3109 230.2 72.1491 229.805 71.816C229.42 71.483 229.217 71.0167 229.217 70.4076C229.217 69.8557 229.42 69.4084 229.814 69.0468C230.209 68.6947 230.672 68.5139 231.201 68.5139C231.712 68.5139 232.164 68.6757 232.559 68.9992C232.954 69.3228 233.147 69.7891 233.147 70.4076C233.147 71.0072 232.954 71.4734 232.569 71.8065C232.203 72.1491 231.741 72.3109 231.211 72.3109ZM233.157 76.3267V87.5463C233.157 88.3266 232.974 88.9166 232.598 89.3068C232.222 89.7065 231.75 89.9063 231.172 89.9063C230.595 89.9063 230.132 89.7065 229.766 89.2973C229.41 88.8881 229.227 88.3076 229.227 87.5463V76.4314C229.227 75.6606 229.41 75.0801 229.766 74.6994C230.123 74.3093 230.595 74.119 231.172 74.119C231.75 74.119 232.222 74.3093 232.598 74.6994C232.974 75.0896 233.157 75.632 233.157 76.3267Z" fill="#2979FF"/>
<path d="M240.64 76.2696V76.7359C241.334 75.8319 242.085 75.1752 242.904 74.747C243.722 74.3283 244.666 74.1094 245.735 74.1094C246.776 74.1094 247.7 74.3283 248.519 74.7756C249.338 75.2228 249.944 75.8509 250.349 76.6693C250.609 77.1451 250.773 77.659 250.85 78.2014C250.927 78.7533 250.965 79.4575 250.965 80.3045V87.5273C250.965 88.3076 250.782 88.8976 250.426 89.2878C250.069 89.6874 249.598 89.8873 249.02 89.8873C248.432 89.8873 247.96 89.6874 247.594 89.2782C247.228 88.869 247.045 88.2886 247.045 87.5273V81.0562C247.045 79.7716 246.862 78.8009 246.506 78.1157C246.15 77.4401 245.427 77.0975 244.358 77.0975C243.655 77.0975 243.019 77.3069 242.441 77.7161C241.864 78.1253 241.44 78.6962 241.17 79.4195C240.977 79.9999 240.881 81.0753 240.881 82.6645V87.5273C240.881 88.3171 240.698 88.9071 240.323 89.2973C239.957 89.6874 239.475 89.8873 238.887 89.8873C238.319 89.8873 237.857 89.6874 237.491 89.2782C237.125 88.869 236.942 88.2886 236.942 87.5273V76.3077C236.942 75.5654 237.106 75.0135 237.433 74.6518C237.761 74.2902 238.204 74.0999 238.772 74.0999C239.119 74.0999 239.427 74.176 239.706 74.3378C239.985 74.4996 240.207 74.7375 240.38 75.061C240.563 75.4131 240.64 75.8033 240.64 76.2696Z" fill="#2979FF"/>
<path d="M269.188 76.9643V88.241C269.188 89.5352 269.053 90.6391 268.774 91.5716C268.494 92.5042 268.051 93.2655 267.435 93.8746C266.818 94.4836 266.019 94.9309 265.027 95.2259C264.035 95.5209 262.802 95.6636 261.319 95.6636C259.961 95.6636 258.757 95.4733 257.688 95.1022C256.619 94.731 255.8 94.2457 255.222 93.6557C254.644 93.0657 254.355 92.4566 254.355 91.8286C254.355 91.3528 254.519 90.9721 254.847 90.6676C255.174 90.3726 255.569 90.2203 256.031 90.2203C256.609 90.2203 257.11 90.4678 257.543 90.9721C257.755 91.2291 257.977 91.486 258.198 91.7429C258.42 91.9999 258.67 92.2283 258.95 92.4091C259.219 92.5899 259.556 92.7326 259.932 92.8183C260.317 92.9039 260.76 92.9515 261.261 92.9515C262.282 92.9515 263.072 92.8088 263.631 92.5328C264.189 92.2568 264.584 91.8571 264.815 91.3623C265.037 90.8579 265.172 90.325 265.21 89.7445C265.249 89.1736 265.277 88.2505 265.297 86.9753C264.69 87.8128 263.996 88.4408 263.197 88.8786C262.407 89.3163 261.463 89.5352 260.365 89.5352C259.046 89.5352 257.9 89.2021 256.917 88.536C255.935 87.8698 255.174 86.9468 254.654 85.7477C254.124 84.5487 253.864 83.1689 253.864 81.6082C253.864 80.4377 254.028 79.3909 254.346 78.4488C254.664 77.5067 255.126 76.7169 255.723 76.0698C256.32 75.4227 257.004 74.9374 257.784 74.6138C258.564 74.2902 259.412 74.119 260.346 74.119C261.463 74.119 262.427 74.3283 263.236 74.7565C264.054 75.1752 264.806 75.8414 265.509 76.7454V76.222C265.509 75.5464 265.672 75.023 266.009 74.6614C266.347 74.2902 266.78 74.1094 267.31 74.1094C268.071 74.1094 268.571 74.3569 268.822 74.8422C269.063 75.3465 269.188 76.0507 269.188 76.9643ZM257.803 81.8842C257.803 83.4543 258.15 84.6534 258.844 85.4527C259.537 86.2616 260.442 86.6613 261.54 86.6613C262.195 86.6613 262.812 86.49 263.39 86.1379C263.968 85.7953 264.44 85.2719 264.806 84.5772C265.172 83.8826 265.355 83.0356 265.355 82.0364C265.355 80.4567 264.998 79.2196 264.295 78.3346C263.592 77.4496 262.658 77.0119 261.512 77.0119C260.385 77.0119 259.489 77.4306 258.815 78.2775C258.141 79.134 257.803 80.333 257.803 81.8842Z" fill="#2979FF"/>
<path d="M47.7428 49.5957C56.0739 48.4537 61.8335 44.8185 64.7229 39.9082C64.7133 39.8987 64.7037 39.8987 64.694 39.8891C63.3071 39.4419 62.3825 38.7091 62.4595 37.9574C62.5559 37.0153 64.1836 36.3967 66.2254 36.4538C66.3988 35.8638 66.5433 35.2738 66.6492 34.6648C62.9315 34.4935 59.9939 32.5807 59.965 30.2112C59.9361 27.9844 62.4595 26.1002 65.8402 25.6434C65.2623 24.0352 64.4244 22.4936 63.3071 21.0661C63.3264 20.7806 64.6555 1.50085 58.8381 1.50085C53.1749 1.50085 46.6833 12.0733 46.2692 12.7585C46.2692 12.768 46.2692 12.7871 46.2692 12.7966C46.8085 12.8632 47.3383 12.9488 47.8487 13.0345C47.1071 15.6229 45.8261 17.4595 44.8437 17.2311C43.9191 17.0122 43.582 15.0138 43.9769 12.5491C43.1294 12.4825 42.2625 12.4254 41.3572 12.3874C40.6733 14.9282 37.9573 20.5713 36.8593 20.5713C35.7132 20.5713 31.4369 15.6324 29.6454 13.5103C29.1253 13.653 28.6149 13.8053 28.1044 13.9671C28.5763 16.8124 27.7866 19.3056 26.2937 19.5816C25.0223 19.8195 23.6547 18.3826 22.8938 16.2129C23.8281 15.6895 24.8201 15.2137 25.8603 14.7855C25.8603 14.7855 25.8603 14.7855 25.8506 14.7855C25.8506 14.7855 15.6125 3.67054 12.6845 5.117C9.7566 6.56347 6.82866 23.921 11.2206 26.8234C11.6347 27.0994 12.1067 27.2136 12.6075 27.1946C12.5786 27.2517 12.5593 27.3088 12.5401 27.3659C14.3893 28.032 15.6125 29.1454 15.3717 30.0304C15.1213 30.9439 13.3973 31.296 11.3939 30.9059C11.0954 32.2952 10.9605 33.656 11.0087 34.9693C13.8596 34.484 16.3734 35.3119 16.8357 36.9962C17.2883 38.6711 15.5547 40.6219 12.8579 41.6211C13.9559 43.8289 15.1887 45.4371 15.4199 45.7606C15.4295 45.7606 15.4391 45.7606 15.4488 45.7606C16.8357 43.8193 19.0413 42.9724 20.6015 43.8574C22.1522 44.7424 22.5278 47.0358 21.5454 49.177C23.7895 49.805 26.2841 50.0524 28.9231 50.1381C25.3691 53.3546 22.8168 58.2839 22.0077 64.0032C25.1379 65.4972 28.4993 66.6011 32.0244 67.2387C32.4096 61.4148 35.5302 56.866 39.3346 56.866C43.1294 56.866 46.2596 61.4053 46.6448 67.2196C49.6787 66.6582 52.5874 65.7637 55.3323 64.5646C54.61 58.2839 51.7495 52.8883 47.7428 49.5957ZM57.3742 4.40329C58.8382 4.40329 60.5429 5.64991 61.8913 19.4864C62.3151 19.9147 62.7196 20.3524 63.0856 20.7997C61.4194 23.2073 59.4931 24.6347 58.5203 24.0828C57.432 23.4642 57.9135 20.5998 59.5798 17.6118C57.5861 16.1748 55.1493 14.9663 52.1925 14.0717C52.1925 14.0527 52.1925 14.0432 52.1925 14.0432C52.1925 14.0432 55.9102 4.40329 57.3742 4.40329ZM20.4763 17.8782C17.0765 20.2763 14.6012 23.2644 13.0216 26.3857C12.7423 26.4523 12.4919 26.4333 12.2897 26.2905C10.1804 24.9012 11.8851 8.73316 13.4551 8.73316C16.383 8.73316 20.7749 17.4119 20.7749 17.4119C20.7749 17.4119 20.6593 17.5927 20.4763 17.8782Z" fill="white"/>
<path d="M42.2239 32.1334C44.6495 32.1334 46.6159 31.4858 46.6159 30.6869C46.6159 29.8881 44.6495 29.2405 42.2239 29.2405C39.7984 29.2405 37.832 29.8881 37.832 30.6869C37.832 31.4858 39.7984 32.1334 42.2239 32.1334Z" fill="#2979FF"/>
<path d="M40.837 38.3856C40.5191 38.3856 40.2013 38.3094 39.9124 38.1667C39.1226 37.7575 38.6699 36.8725 38.6699 35.7401H39.6234C39.6234 36.5109 39.8931 37.0914 40.3554 37.3388C40.7118 37.5291 41.1644 37.4815 41.5208 37.2341C42.0409 36.8725 42.2721 36.1873 42.1565 35.3404V35.3023L41.9639 31.9812L42.9174 31.9241L43.11 35.2262C43.2641 36.4252 42.8885 37.4339 42.0698 37.9954C41.6942 38.2523 41.2608 38.3856 40.837 38.3856Z" fill="#2979FF"/>
<path d="M44.439 38.1C44.1212 38.1 43.8034 38.0239 43.5144 37.8812C42.7246 37.472 42.272 36.587 42.272 35.4545H43.2255C43.2255 36.2254 43.4952 36.8058 43.9575 37.0533C44.3138 37.2341 44.7665 37.196 45.1229 36.9486C45.643 36.587 45.8741 35.9018 45.7585 35.0549L46.7024 34.9312C46.8661 36.1397 46.4809 37.1484 45.6622 37.7194C45.2962 37.9668 44.8628 38.1 44.439 38.1Z" fill="#2979FF"/>
<path d="M30.6085 31.7624C31.8638 31.7624 32.8815 30.2541 32.8815 28.3936C32.8815 26.5331 31.8638 25.0249 30.6085 25.0249C29.3531 25.0249 28.3354 26.5331 28.3354 28.3936C28.3354 30.2541 29.3531 31.7624 30.6085 31.7624Z" fill="#2979FF"/>
<path d="M51.7877 30.5918C53.043 30.5918 54.0607 29.0836 54.0607 27.2231C54.0607 25.3626 53.043 23.8544 51.7877 23.8544C50.5323 23.8544 49.5146 25.3626 49.5146 27.2231C49.5146 29.0836 50.5323 30.5918 51.7877 30.5918Z" fill="#2979FF"/>
<path d="M163.454 64.184C166.199 65.383 169.108 66.2776 172.142 66.839C172.527 61.0151 175.647 56.4854 179.452 56.4854C183.256 56.4854 186.377 61.0342 186.762 66.8581C190.287 66.211 193.648 65.1166 196.779 63.6226C195.97 57.9128 193.427 52.9739 189.863 49.7575C192.502 49.6718 194.987 49.4244 197.241 48.7963C196.268 46.6552 196.634 44.3618 198.185 43.4768C199.745 42.5918 201.96 43.4387 203.338 45.38C203.347 45.38 203.357 45.38 203.367 45.38C203.598 45.0565 204.831 43.4482 205.928 41.2405C203.232 40.2413 201.498 38.2905 201.951 36.6156C202.413 34.9313 204.917 34.1033 207.778 34.5887C207.826 33.2754 207.691 31.9146 207.392 30.5253C205.38 30.9154 203.665 30.5633 203.415 29.6498C203.174 28.7648 204.407 27.6419 206.246 26.9852C206.217 26.9281 206.198 26.871 206.179 26.8139C206.689 26.833 207.152 26.7188 207.566 26.4428C211.958 23.5499 209.03 6.19237 206.102 4.73639C203.174 3.28993 192.945 14.4048 192.936 14.4048C192.936 14.4048 192.936 14.4048 192.926 14.4048C193.966 14.8331 194.958 15.3089 195.893 15.8323C195.141 18.002 193.764 19.4294 192.493 19.201C191 18.925 190.21 16.4413 190.682 13.5864C190.181 13.4247 189.671 13.2724 189.141 13.1297C187.359 15.2518 183.083 20.1907 181.927 20.1907C180.829 20.1907 178.113 14.5381 177.429 12.0068C176.524 12.0353 175.657 12.0924 174.809 12.1685C175.214 14.6332 174.877 16.6316 173.943 16.8505C172.97 17.0789 171.679 15.2423 170.938 12.6539C171.448 12.5682 171.978 12.4921 172.517 12.416C172.517 12.4064 172.517 12.3874 172.517 12.3779C172.103 11.6927 165.612 1.12024 159.948 1.12024C154.131 1.12024 155.46 20.4 155.479 20.6855C154.362 22.1129 153.534 23.6546 152.946 25.2628C156.317 25.7101 158.85 27.5943 158.821 29.8306C158.792 32.2096 155.855 34.1224 152.137 34.2841C152.243 34.8932 152.388 35.4832 152.561 36.0732C154.603 36.0066 156.231 36.6346 156.327 37.5768C156.404 38.3285 155.479 39.0613 154.092 39.5085C154.083 39.5181 154.073 39.5181 154.063 39.5276C156.963 44.4284 162.712 48.0731 171.044 49.215C167.066 52.4981 164.205 57.8938 163.454 64.184ZM166.632 13.6626C166.632 13.6626 166.632 13.6721 166.632 13.6911C163.676 14.5856 161.229 15.7942 159.245 17.2311C160.921 20.2192 161.403 23.0836 160.305 23.7022C159.322 24.2636 157.406 22.8362 155.739 20.4191C156.105 19.9718 156.51 19.5341 156.934 19.1058C158.272 5.2693 159.987 4.02268 161.451 4.02268C162.905 4.01316 166.632 13.6626 166.632 13.6626ZM198.05 17.0408C198.05 17.0408 202.442 8.36206 205.37 8.36206C206.94 8.36206 208.645 24.5301 206.535 25.9194C206.323 26.0527 206.083 26.0812 205.803 26.0146C204.224 22.8933 201.739 19.9052 198.349 17.5071C198.156 17.2026 198.05 17.0408 198.05 17.0408Z" fill="white"/>
<path d="M176.592 31.7434C179.017 31.7434 180.984 31.0958 180.984 30.2969C180.984 29.4981 179.017 28.8505 176.592 28.8505C174.166 28.8505 172.2 29.4981 172.2 30.2969C172.2 31.0958 174.166 31.7434 176.592 31.7434Z" fill="#2979FF"/>
<path d="M177.978 37.9954C178.296 37.9954 178.614 37.9193 178.903 37.7765C179.693 37.3674 180.145 36.4824 180.145 35.3499H179.192C179.192 36.1207 178.922 36.7012 178.46 36.9486C178.103 37.139 177.651 37.0914 177.294 36.844C176.774 36.4824 176.543 35.7972 176.659 34.9502V34.9122L176.851 31.591L175.898 31.5339L175.705 34.8361C175.551 36.0351 175.927 37.0438 176.745 37.6053C177.121 37.8622 177.555 37.9954 177.978 37.9954Z" fill="#2979FF"/>
<path d="M174.376 37.7194C174.694 37.7194 175.012 37.6433 175.301 37.5006C176.09 37.0914 176.543 36.2064 176.543 35.0739H175.59C175.59 35.8447 175.32 36.4252 174.858 36.6726C174.501 36.8535 174.049 36.8154 173.692 36.568C173.172 36.2064 172.941 35.5212 173.057 34.6743L172.113 34.5505C171.949 35.7591 172.334 36.7678 173.153 37.3388C173.519 37.5862 173.952 37.7194 174.376 37.7194Z" fill="#2979FF"/>
<path d="M168.077 28.4698C168.366 26.9472 167.345 25.4722 165.795 25.1867C165.043 25.0439 164.292 25.2057 163.666 25.6339C163.04 26.0622 162.616 26.6997 162.481 27.442L163.647 27.6514C163.724 27.2231 163.974 26.8425 164.34 26.5951C164.706 26.3476 165.149 26.2525 165.592 26.3381C166.498 26.4999 167.095 27.3659 166.922 28.2604L168.077 28.4698Z" fill="#2979FF"/>
<path d="M186.416 30.392H187.6C187.6 29.4879 188.351 28.7457 189.266 28.7457C190.181 28.7457 190.933 29.4879 190.933 30.392H192.117C192.117 28.8408 190.836 27.5752 189.266 27.5752C187.697 27.5752 186.416 28.8408 186.416 30.392Z" fill="#2979FF"/>
<path d="M116.646 48.1397C124.977 46.9978 130.736 43.3626 133.626 38.4523C133.616 38.4427 133.606 38.4427 133.597 38.4332C132.21 37.986 131.285 37.2532 131.362 36.5014C131.459 35.5593 133.086 34.9408 135.128 34.9979C135.302 34.4079 135.446 33.8179 135.552 33.2088C131.834 33.0375 128.897 31.1248 128.868 28.7553C128.839 26.5285 131.362 24.6443 134.743 24.1875C134.165 22.5793 133.327 21.0376 132.21 19.6102C132.229 19.3247 133.558 0.0449219 127.741 0.0449219C122.078 0.0449219 115.586 10.6174 115.172 11.3026C115.172 11.3121 115.172 11.3311 115.172 11.3406C115.711 11.4073 116.241 11.4929 116.752 11.5785C116.01 14.1669 114.729 16.0036 113.747 15.7752C112.822 15.5563 112.485 13.5579 112.88 11.0932C112.032 11.0266 111.165 10.9695 110.26 10.9314C109.576 13.4723 106.86 19.1154 105.762 19.1154C104.616 19.1154 100.34 14.1765 98.5483 12.0544C98.0282 12.1971 97.5177 12.3494 97.0072 12.5111C97.4792 15.3565 96.6894 17.8497 95.1965 18.1257C93.9252 18.3636 92.5575 16.9266 91.7966 14.757C92.7309 14.2336 93.7229 13.7578 94.7631 13.3295C94.7631 13.3295 94.7631 13.3295 94.7535 13.3295C94.7535 13.3295 84.5153 2.21462 81.5874 3.66108C78.6594 5.10754 75.7315 22.4651 80.1234 25.3675C80.5376 25.6435 81.0095 25.7577 81.5103 25.7386C81.4814 25.7957 81.4622 25.8528 81.4429 25.9099C83.2921 26.5761 84.5153 27.6894 84.2745 28.5745C84.0241 29.488 82.3001 29.8401 80.2968 29.4499C79.9982 30.8393 79.8634 32.2001 79.9115 33.5134C82.7624 33.028 85.2762 33.8559 85.7385 35.5403C86.1912 37.2151 84.4575 39.166 81.7607 40.1652C82.8587 42.3729 84.0915 43.9812 84.3227 44.3047C84.3323 44.3047 84.3419 44.3047 84.3516 44.3047C85.7385 42.3634 87.9441 41.5165 89.5044 42.4015C91.055 43.2865 91.4307 45.5799 90.4483 47.721C92.6924 48.3491 95.1869 48.5965 97.8259 48.6822C94.2719 51.8986 91.7196 56.828 90.9106 62.5472C94.0408 64.0413 97.4021 65.1452 100.927 65.7827C101.312 59.9588 104.433 55.4101 108.237 55.4101C112.032 55.4101 115.162 59.9493 115.548 65.7637C118.582 65.2023 121.49 64.3077 124.235 63.1087C123.513 56.8185 120.652 51.4228 116.646 48.1397ZM126.277 2.93784C127.741 2.93784 129.446 4.18447 130.794 18.021C131.218 18.4492 131.622 18.887 131.988 19.3342C130.322 21.7418 128.396 23.1693 127.423 22.6173C126.335 21.9988 126.816 19.1344 128.483 16.1463C126.489 14.7094 124.052 13.5008 121.095 12.6063C121.095 12.5873 121.095 12.5777 121.095 12.5777C121.095 12.5777 124.813 2.93784 126.277 2.93784ZM89.3695 16.4223C85.9697 18.8204 83.4944 21.8084 81.9148 24.9298C81.6355 24.9964 81.3851 24.9773 81.1829 24.8346C79.0736 23.4452 80.7783 7.27723 82.3483 7.27723C85.2762 7.27723 89.6681 15.956 89.6681 15.956C89.6681 15.956 89.5622 16.1273 89.3695 16.4223Z" fill="white"/>
<path d="M118.861 27.68C118.572 26.1574 119.593 24.6824 121.144 24.3969C121.895 24.2541 122.646 24.4159 123.272 24.8441C123.898 25.2724 124.322 25.91 124.457 26.6522L123.291 26.8616C123.214 26.4333 122.964 26.0527 122.598 25.8053C122.232 25.5579 121.789 25.4627 121.346 25.5483C120.44 25.7101 119.843 26.5761 120.017 27.4706L118.861 27.68Z" fill="#2979FF"/>
<path d="M100.523 29.6022H99.3379C99.3379 28.6982 98.5867 27.9559 97.6717 27.9559C96.7567 27.9559 96.0055 28.6982 96.0055 29.6022H94.8208C94.8208 28.0511 96.1018 26.7854 97.6717 26.7854C99.2416 26.7854 100.523 28.0511 100.523 29.6022Z" fill="#2979FF"/>
<path d="M111.541 30.1066C113.487 30.1066 115.066 29.0313 115.066 28.2605C115.066 27.4896 115.066 26.8616 111.541 26.8616C108.016 26.8616 108.016 27.4896 108.016 28.2605C108.016 29.0313 109.596 30.1066 111.541 30.1066Z" fill="#2979FF"/>
<path d="M116.819 31.6577L112.186 31.9051V30.1066H110.886V31.9242H111.743L106.446 32.2001C106.446 32.2001 104.241 43.6291 112.418 43.6291C119.487 43.6291 116.819 31.6577 116.819 31.6577Z" fill="#2979FF"/>
<path d="M97.4092 37.6093C99.458 37.2875 100.935 35.8821 100.708 34.4703C100.48 33.0585 98.6354 32.1749 96.5866 32.4967C94.5378 32.8185 93.0611 34.2238 93.2883 35.6357C93.5154 37.0475 95.3604 37.9311 97.4092 37.6093Z" fill="#2979FF"/>
<path d="M125.659 34.2121C127.708 33.8903 129.184 32.4849 128.957 31.0731C128.73 29.6613 126.885 28.7776 124.836 29.0995C122.787 29.4213 121.311 30.8266 121.538 32.2384C121.765 33.6502 123.61 34.5339 125.659 34.2121Z" fill="#2979FF"/>
<path d="M116.106 41.526C117.84 38.6996 108.546 39.2801 108.006 41.6402C108.623 42.8011 113.978 44.9898 116.106 41.526Z" fill="white"/>
<path d="M229.622 63.4988C232.367 64.6979 235.276 65.5924 238.31 66.1539C238.695 60.3299 241.815 55.8002 245.62 55.8002C249.424 55.8002 252.545 60.349 252.93 66.1729C256.455 65.5258 259.816 64.4314 262.947 62.9374C262.138 57.2277 259.595 52.2888 256.031 49.0723C258.67 48.9866 261.155 48.7392 263.409 48.1112C262.436 45.97 262.802 43.6766 264.353 42.7916C265.913 41.9066 268.128 42.7535 269.506 44.6948C269.515 44.6948 269.525 44.6948 269.534 44.6948C269.766 44.3713 270.998 42.7631 272.096 40.5553C269.4 39.5561 267.666 37.6053 268.119 35.9304C268.581 34.2461 271.085 33.4182 273.946 33.9035C273.994 32.5903 273.859 31.2294 273.56 29.8401C271.547 30.2302 269.833 29.8781 269.583 28.9646C269.342 28.0796 270.575 26.9567 272.414 26.3001C272.385 26.243 272.366 26.1859 272.347 26.1288C272.857 26.1478 273.32 26.0336 273.734 25.7576C278.126 22.8647 275.198 5.50719 272.27 4.05121C269.342 2.60475 259.113 13.7197 259.104 13.7197C259.104 13.7197 259.104 13.7197 259.094 13.7197C260.134 14.1479 261.126 14.6237 262.061 15.1471C261.309 17.3168 259.932 18.7442 258.661 18.5158C257.168 18.2398 256.378 15.7561 256.85 12.9013C256.349 12.7395 255.839 12.5872 255.309 12.4445C253.527 14.5666 249.251 19.5055 248.095 19.5055C246.997 19.5055 244.281 13.8529 243.597 11.3216C242.692 11.3501 241.825 11.4072 240.977 11.4834C241.382 13.948 241.045 15.9464 240.111 16.1653C239.138 16.3937 237.847 14.5571 237.106 11.9687C237.616 11.883 238.146 11.8069 238.685 11.7308C238.685 11.7213 238.685 11.7022 238.685 11.6927C238.271 11.0075 231.779 0.435059 226.116 0.435059C220.299 0.435059 221.628 19.7149 221.647 20.0003C220.53 21.4278 219.702 22.9694 219.114 24.5776C222.485 25.0249 225.018 26.9091 224.989 29.1454C224.96 31.5244 222.023 33.4372 218.305 33.599C218.411 34.208 218.556 34.798 218.729 35.388C220.771 35.3214 222.398 35.9495 222.495 36.8916C222.572 37.6434 221.647 38.3761 220.26 38.8234C220.251 38.8329 220.241 38.8329 220.231 38.8424C223.13 43.7432 228.88 47.3879 237.212 48.5299C233.234 51.813 230.373 57.2086 229.622 63.4988ZM232.8 12.9774C232.8 12.9774 232.8 12.9869 232.8 13.0059C229.844 13.9005 227.397 15.109 225.413 16.546C227.089 19.534 227.571 22.3984 226.473 23.017C225.49 23.5784 223.574 22.151 221.907 19.7339C222.273 19.2866 222.678 18.8489 223.102 18.4207C224.44 4.58412 226.155 3.3375 227.619 3.3375C229.073 3.32798 232.8 12.9774 232.8 12.9774ZM264.218 16.3556C264.218 16.3556 268.61 7.67688 271.538 7.67688C273.108 7.67688 274.812 23.8449 272.703 25.2342C272.491 25.3675 272.251 25.396 271.971 25.3294C270.392 22.2081 267.907 19.22 264.517 16.8219C264.324 16.5174 264.218 16.3556 264.218 16.3556Z" fill="white"/>
<path d="M255.723 30.3826C256.978 30.3826 257.996 28.8744 257.996 27.0139C257.996 25.1534 256.978 23.6451 255.723 23.6451C254.467 23.6451 253.45 25.1534 253.45 27.0139C253.45 28.8744 254.467 30.3826 255.723 30.3826Z" fill="#2979FF"/>
<path d="M234.544 29.2121C235.799 29.2121 236.816 27.7038 236.816 25.8433C236.816 23.9828 235.799 22.4746 234.544 22.4746C233.288 22.4746 232.271 23.9828 232.271 25.8433C232.271 27.7038 233.288 29.2121 234.544 29.2121Z" fill="#2979FF"/>
<path d="M245.254 29.2311C243.308 29.2311 241.729 28.1558 241.729 27.385C241.729 26.6141 241.729 25.9861 245.254 25.9861C248.779 25.9861 248.779 26.6141 248.779 27.385C248.779 28.1558 247.199 29.2311 245.254 29.2311Z" fill="#2979FF"/>
<path d="M239.976 30.7822L244.608 31.0296V29.2311H245.908V31.0487H245.051L250.349 31.3246C250.349 31.3246 252.554 42.7536 244.377 42.7536C237.308 42.7631 239.976 30.7822 239.976 30.7822Z" fill="#2979FF"/>
<path d="M240.688 40.6506C238.955 37.8243 248.249 38.4048 248.788 40.7648C248.172 41.9353 242.817 44.1145 240.688 40.6506Z" fill="#2979FF"/>
</svg>
