<svg width="46" height="46" viewBox="0 0 46 46" fill="none" xmlns="http://www.w3.org/2000/svg">
<path d="M22.9805 3.83337C12.4005 3.83337 3.83301 12.42 3.83301 23C3.83301 33.58 12.4005 42.1667 22.9805 42.1667C33.5797 42.1667 42.1663 33.58 42.1663 23C42.1663 12.42 33.5797 3.83337 22.9805 3.83337ZM37.3172 17.5567L27.7147 16.7325L23.8813 7.70504C30.0338 8.06921 35.2088 12.0559 37.3172 17.5567ZM27.5997 29.555L22.9997 26.795L18.4188 29.555L19.6263 24.3417L15.5822 20.8342L20.9105 20.3742L22.9997 15.4484L25.0888 20.355L30.4172 20.815L26.373 24.3225L27.5997 29.555ZM22.118 7.70504L18.2847 16.7517L8.66301 17.5759C10.7713 12.0559 15.9463 8.05004 22.118 7.70504ZM7.66634 23C7.66634 21.7734 7.81967 20.585 8.10717 19.435L15.3713 25.7217L13.2438 34.8259C9.83217 32.0084 7.66634 27.7534 7.66634 23ZM15.0263 36.0717L22.9997 31.2609L30.973 36.0525C28.6347 37.49 25.913 38.3334 22.9805 38.3334C20.0672 38.3334 17.3455 37.49 15.0263 36.0717ZM32.7555 34.8259L30.628 25.7217L37.8922 19.435C38.1605 20.5659 38.333 21.7734 38.333 23C38.333 27.7534 36.148 32.0084 32.7555 34.8259Z" fill="white"/>
</svg>
