<svg width="30" height="35" viewBox="0 0 30 35" fill="none" xmlns="http://www.w3.org/2000/svg">
<g clip-path="url(#clip0_403_8840)">
<path d="M17.5315 16.1727C18.7861 16.1727 19.8032 15.8307 19.8032 15.4088C19.8032 14.9869 18.7861 14.6449 17.5315 14.6449C16.2768 14.6449 15.2598 14.9869 15.2598 15.4088C15.2598 15.8307 16.2768 16.1727 17.5315 16.1727Z" fill="#1976D2"/>
<path d="M16.8128 19.4815C16.6457 19.4815 16.4829 19.4435 16.3325 19.3633C15.9233 19.1481 15.6895 18.6796 15.6895 18.0761H16.1822C16.1822 18.4855 16.32 18.7936 16.5622 18.9202C16.7501 19.0172 16.9798 18.9961 17.1636 18.8653C17.4308 18.6754 17.5519 18.3124 17.4935 17.8651V17.8482L17.3932 16.0883L17.886 16.0587L17.9862 17.8102C18.0656 18.4433 17.8693 18.9793 17.4475 19.2747C17.2554 19.4097 17.0341 19.4815 16.8128 19.4815Z" fill="#1976D2"/>
<path d="M18.678 19.3338C18.511 19.3338 18.3481 19.2958 18.1978 19.2156C17.7885 19.0004 17.5547 18.5319 17.5547 17.9284H18.0474C18.0474 18.3378 18.1853 18.6459 18.4275 18.7725C18.6154 18.8695 18.8451 18.8484 19.0288 18.7176C19.2961 18.5277 19.4172 18.1647 19.3587 17.7174L19.8473 17.6541C19.9308 18.2913 19.7345 18.8273 19.3128 19.127C19.1207 19.262 18.8993 19.3338 18.678 19.3338Z" fill="#1976D2"/>
<path d="M11.5214 15.9743C12.1717 15.9743 12.699 15.1769 12.699 14.1933C12.699 13.2097 12.1717 12.4123 11.5214 12.4123C10.871 12.4123 10.3438 13.2097 10.3438 14.1933C10.3438 15.1769 10.871 15.9743 11.5214 15.9743Z" fill="#1976D2"/>
<path d="M22.4784 15.3539C23.1288 15.3539 23.656 14.5565 23.656 13.5729C23.656 12.5893 23.1288 11.7919 22.4784 11.7919C21.828 11.7919 21.3008 12.5893 21.3008 13.5729C21.3008 14.5565 21.828 15.3539 22.4784 15.3539Z" fill="#1976D2"/>
<g clip-path="url(#clip1_403_8840)">
<path d="M20.6616 25.6053C24.9962 24.9976 27.9946 23.0604 29.5021 20.448C29.4979 20.4437 29.4937 20.4437 29.4854 20.4395C28.763 20.2032 28.2827 19.8107 28.3245 19.4097C28.3746 18.9075 29.2223 18.5783 30.283 18.6121C30.3749 18.2998 30.45 17.9832 30.5043 17.6583C28.5667 17.5696 27.0425 16.5483 27.0258 15.2864C27.0091 14.1004 28.3245 13.096 30.0825 12.8554C29.7777 11.9987 29.3476 11.1757 28.7671 10.4202C28.7713 10.2641 29.4603 0 26.4369 0C23.4887 0 20.1104 5.63005 19.8932 5.99301C19.8932 6.00145 19.8932 6.00567 19.8932 6.01411C20.173 6.05209 20.4486 6.0943 20.7159 6.14072C20.3317 7.51658 19.6636 8.49572 19.1541 8.37755C18.6697 8.2636 18.4943 7.19583 18.7073 5.88328C18.2688 5.84529 17.8136 5.81575 17.3459 5.79887C16.991 7.1494 15.5795 10.1586 15.0074 10.1586C14.4102 10.1586 12.1844 7.52924 11.2532 6.39817C10.9818 6.47413 10.7145 6.55432 10.4514 6.63873C10.6978 8.15386 10.2844 9.47908 9.50766 9.62679C8.84786 9.74919 8.13377 8.98529 7.74123 7.83311C8.22564 7.55456 8.74346 7.30134 9.28633 7.07344H9.28216C9.28216 7.07344 3.95365 1.15218 2.42943 1.92451C0.905208 2.69685 -0.619013 11.9396 1.66941 13.48C1.88656 13.6235 2.12876 13.6868 2.39185 13.6784C2.37932 13.7079 2.36679 13.7375 2.35426 13.767C3.31473 14.1215 3.95365 14.7124 3.82837 15.1893C3.69892 15.6747 2.80109 15.8646 1.7571 15.6536C1.59842 16.3921 1.5316 17.1181 1.55666 17.8144C3.04329 17.557 4.35036 17.9959 4.58839 18.8949C4.82642 19.7896 3.92024 20.8278 2.51712 21.3596C3.08923 22.5329 3.73232 23.3896 3.84925 23.5626C3.85343 23.5626 3.86178 23.5626 3.86595 23.5669C4.58422 22.5371 5.73678 22.0813 6.55109 22.554C7.36122 23.0224 7.55332 24.2421 7.04385 25.3859C8.21312 25.7193 9.51184 25.8543 10.8815 25.8965C9.0316 27.61 7.70365 30.2351 7.28606 33.2781C8.91467 34.0757 10.6644 34.6581 12.4976 35C12.6981 31.898 14.3225 29.4755 16.3019 29.4755C18.2771 29.4755 19.9058 31.8895 20.1062 34.9916C21.6847 34.6919 23.1964 34.215 24.6246 33.5777C24.2362 30.2267 22.7454 27.3526 20.6616 25.6053ZM25.6728 1.54046C26.4328 1.54046 27.3223 2.20306 28.0238 9.57193C28.2451 9.79983 28.4539 10.032 28.646 10.2725C27.7774 11.5555 26.7794 12.3152 26.2699 12.0198C25.702 11.6906 25.9525 10.1628 26.8253 8.57169C25.7897 7.80779 24.516 7.16206 22.9793 6.68938C22.9793 6.68094 22.9793 6.67672 22.9793 6.67672C22.9793 6.67672 24.9127 1.54046 25.6728 1.54046ZM6.46757 8.7194C4.70114 9.99397 3.4066 11.5851 2.58394 13.2479C2.43778 13.2859 2.30833 13.2732 2.19975 13.2015C1.10565 12.4587 1.99095 3.85325 2.80944 3.85325C4.33366 3.85325 6.62208 8.47462 6.62208 8.47462C6.62208 8.47462 6.56362 8.56325 6.46757 8.7194Z" fill="white"/>
<path d="M18.0315 16.1727C19.2861 16.1727 20.3032 15.8307 20.3032 15.4088C20.3032 14.9869 19.2861 14.6449 18.0315 14.6449C16.7768 14.6449 15.7598 14.9869 15.7598 15.4088C15.7598 15.8307 16.7768 16.1727 18.0315 16.1727Z" fill="#1976D2"/>
<path d="M17.3128 19.4815C17.1457 19.4815 16.9829 19.4435 16.8325 19.3633C16.4233 19.1481 16.1895 18.6796 16.1895 18.0761H16.6822C16.6822 18.4855 16.82 18.7936 17.0622 18.9202C17.2501 19.0172 17.4798 18.9961 17.6636 18.8653C17.9308 18.6754 18.0519 18.3124 17.9935 17.8651V17.8482L17.8932 16.0883L18.386 16.0587L18.4862 17.8102C18.5656 18.4433 18.3693 18.9793 17.9475 19.2747C17.7554 19.4097 17.5341 19.4815 17.3128 19.4815Z" fill="#1976D2"/>
<path d="M19.178 19.3338C19.011 19.3338 18.8481 19.2958 18.6978 19.2156C18.2885 19.0004 18.0547 18.5319 18.0547 17.9284H18.5474C18.5474 18.3378 18.6853 18.6459 18.9275 18.7725C19.1154 18.8695 19.3451 18.8484 19.5288 18.7176C19.7961 18.5277 19.9172 18.1647 19.8587 17.7174L20.3473 17.6541C20.4308 18.2913 20.2345 18.8273 19.8128 19.127C19.6207 19.262 19.3993 19.3338 19.178 19.3338Z" fill="#1976D2"/>
<path d="M12.0214 15.9743C12.6717 15.9743 13.199 15.1769 13.199 14.1933C13.199 13.2097 12.6717 12.4123 12.0214 12.4123C11.371 12.4123 10.8438 13.2097 10.8438 14.1933C10.8438 15.1769 11.371 15.9743 12.0214 15.9743Z" fill="#1976D2"/>
<path d="M22.9784 15.3539C23.6288 15.3539 24.156 14.5565 24.156 13.5729C24.156 12.5893 23.6288 11.7919 22.9784 11.7919C22.328 11.7919 21.8008 12.5893 21.8008 13.5729C21.8008 14.5565 22.328 15.3539 22.9784 15.3539Z" fill="#1976D2"/>
</g>
</g>
<defs>
<clipPath id="clip0_403_8840">
<rect width="30" height="35" fill="white"/>
</clipPath>
<clipPath id="clip1_403_8840">
<rect width="30" height="35" fill="white" transform="translate(0.5)"/>
</clipPath>
</defs>
</svg>
