<svg width="34" height="34" viewBox="0 0 34 34" fill="none" xmlns="http://www.w3.org/2000/svg">
<path d="M16.983 0.333313C7.78301 0.333313 0.333008 7.79998 0.333008 17C0.333008 26.2 7.78301 33.6666 16.983 33.6666C26.1997 33.6666 33.6663 26.2 33.6663 17C33.6663 7.79998 26.1997 0.333313 16.983 0.333313ZM29.4497 12.2666L21.0997 11.55L17.7663 3.69998C23.1163 4.01665 27.6163 7.48331 29.4497 12.2666ZM20.9997 22.7L16.9997 20.3L13.0163 22.7L14.0663 18.1666L10.5497 15.1166L15.183 14.7166L16.9997 10.4333L18.8163 14.7L23.4497 15.1L19.933 18.15L20.9997 22.7ZM16.233 3.69998L12.8997 11.5666L4.53301 12.2833C6.36634 7.48331 10.8663 3.99998 16.233 3.69998ZM3.66634 17C3.66634 15.9333 3.79967 14.9 4.04967 13.9L10.3663 19.3666L8.51634 27.2833C5.54967 24.8333 3.66634 21.1333 3.66634 17ZM10.0663 28.3666L16.9997 24.1833L23.933 28.35C21.8997 29.6 19.533 30.3333 16.983 30.3333C14.4497 30.3333 12.083 29.6 10.0663 28.3666ZM25.483 27.2833L23.633 19.3666L29.9497 13.9C30.183 14.8833 30.333 15.9333 30.333 17C30.333 21.1333 28.433 24.8333 25.483 27.2833Z" fill="#64B5F6"/>
</svg>
