<svg width="30" height="35" viewBox="0 0 30 35" fill="none" xmlns="http://www.w3.org/2000/svg">
<g clip-path="url(#clip0_403_8800)">
<path d="M27.0204 15.2865C27.0052 14.0987 28.3228 13.0961 30.0779 12.8544C29.7727 11.9957 29.3403 11.1782 28.7603 10.4172C28.7705 10.263 29.4623 0 26.4354 0C23.4847 0 20.1118 5.63023 19.8931 5.9953C19.8931 6.00044 19.8931 6.01072 19.8931 6.01587C20.1729 6.05186 20.4476 6.09299 20.7172 6.13927C20.3357 7.51726 19.6641 8.4942 19.1554 8.37594C18.6721 8.26282 18.4991 7.19333 18.7077 5.88218C18.2651 5.84619 17.8124 5.81534 17.3443 5.79991C16.9882 7.1522 15.579 10.1601 15.0041 10.1601C14.4038 10.1601 12.1807 7.52755 11.2497 6.4015C10.975 6.47348 10.7104 6.55575 10.451 6.64316C10.6952 8.15998 10.2831 9.48656 9.50983 9.63053C8.84848 9.75393 8.13625 8.99295 7.73944 7.83605C8.22273 7.5584 8.74164 7.30645 9.28599 7.07507C9.28599 7.07507 9.28599 7.07507 9.2809 7.07507C9.2809 7.07507 3.95446 1.1569 2.42826 1.92302C0.902063 2.69429 -0.619049 11.9392 1.66516 13.4766C1.87883 13.6205 2.12302 13.6822 2.38756 13.672C2.3723 13.7028 2.36213 13.7337 2.35195 13.7645C3.31346 14.1193 3.95446 14.7106 3.82728 15.1836C3.7001 15.6721 2.79964 15.8572 1.75674 15.6515C1.59903 16.3868 1.53289 17.1169 1.55833 17.8162C3.04383 17.5591 4.35127 17.9962 4.59038 18.896C4.82948 19.7907 3.92394 20.8293 2.51984 21.3589C3.0947 22.5312 3.73571 23.3899 3.85272 23.5647C3.8578 23.5647 3.86289 23.5647 3.86798 23.5647C4.58529 22.5312 5.74012 22.0787 6.55409 22.5518C7.36298 23.0248 7.55629 24.2434 7.04756 25.3849C7.3528 25.4723 7.6733 25.5443 7.99889 25.606C7.80049 25.6471 7.60208 25.6985 7.40367 25.7602C5.1856 26.4338 2.74368 28.2951 3.10997 29.5189C3.43556 30.6141 5.908 30.8249 8.01415 30.3724C7.68348 31.2825 7.43929 32.2543 7.29684 33.2775C8.92479 34.0745 10.6748 34.6606 12.5114 35C12.7098 31.8944 14.3377 29.4777 16.3167 29.4777C18.2957 29.4777 19.9185 31.8944 20.122 34.9949C21.6991 34.6966 23.2151 34.2185 24.6446 33.5809C24.4666 32.0692 24.0647 30.6552 23.4847 29.3955C23.5 29.4006 23.5153 29.4109 23.5305 29.416C25.6112 30.4393 28.6586 30.7375 29.208 29.5909C29.7574 28.4443 27.6106 26.2796 25.5298 25.2564C25.0618 25.0301 24.5938 24.8553 24.141 24.737C26.6389 23.7961 28.45 22.2896 29.5132 20.4437C29.5081 20.4385 29.503 20.4385 29.498 20.4334C28.7756 20.1969 28.2974 19.8009 28.3381 19.405C28.3889 18.9063 29.2385 18.5721 30.2967 18.6081C30.3882 18.2944 30.4595 17.9808 30.5154 17.6568C28.567 17.5694 27.0357 16.5513 27.0204 15.2865ZM6.46761 8.72044C4.7023 9.99559 3.41012 11.5895 2.58597 13.2503C2.43844 13.2863 2.31125 13.276 2.20442 13.2041C1.10556 12.4585 1.99075 3.85118 2.80981 3.85118C4.33601 3.85118 6.62022 8.47363 6.62022 8.47363C6.62022 8.47363 6.56426 8.56104 6.46761 8.72044ZM20.6867 25.6266C20.6765 25.6214 20.6714 25.6111 20.6613 25.606C20.6714 25.606 20.6816 25.6009 20.6969 25.6009C20.6918 25.606 20.6867 25.6163 20.6867 25.6266ZM26.2675 12.0163C25.6977 11.6872 25.9521 10.1601 26.822 8.57132C25.7842 7.8052 24.5124 7.16248 22.976 6.68944C22.976 6.67915 22.976 6.67401 22.976 6.67401C22.976 6.67401 24.9143 1.54253 25.6723 1.54253C26.4354 1.54253 27.3206 2.20582 28.0226 9.57397C28.2465 9.80021 28.4551 10.0316 28.6433 10.2732C27.7784 11.5535 26.7762 12.3145 26.2675 12.0163Z" fill="white"/>
<path d="M10.8069 16.2686C11.3106 16.6696 11.4327 17.4049 11.0613 17.9345C10.6797 18.4744 10.0133 18.9423 8.87882 18.5618C6.6811 17.8214 8.37009 15.9189 8.81269 16.068C9.04671 16.14 10.3694 15.9189 10.8069 16.2686Z" fill="#1976D2"/>
<path d="M24.9452 15.3893C24.9452 15.3893 25.0927 16.7159 23.6276 17.0192C22.1624 17.3226 22.1624 16.2069 22.1624 16.2069L21.1348 16.2326V15.3945L25.9728 14.6592V15.3945H24.9452V15.3893Z" fill="#1976D2"/>
<path d="M17.0645 17.7288C18.1431 17.5848 18.957 17.045 18.8909 16.5205C18.8197 16.0012 17.8938 15.6927 16.8203 15.8418C15.7418 15.9858 14.9279 16.5256 14.994 17.0501C15.0601 17.5694 15.9911 17.8728 17.0645 17.7288Z" fill="#1976D2"/>
<path d="M18.4526 19.441C18.183 19.2302 17.8574 19.1171 17.5216 19.1016L17.3792 17.6979L16.8043 17.7596L16.9468 19.1839C16.6415 19.2867 16.3668 19.477 16.1684 19.7444C15.9038 20.094 15.7868 20.5259 15.8479 20.9578L16.4228 20.8807C16.3871 20.5979 16.4584 20.3202 16.6313 20.0991C16.8043 19.8729 17.0485 19.7289 17.3283 19.6929C17.603 19.657 17.8828 19.7289 18.1016 19.9038C18.3254 20.0786 18.4679 20.3254 18.5035 20.6082L19.0783 20.5311C19.0173 20.094 18.7985 19.7084 18.4526 19.441Z" fill="#1976D2"/>
</g>
<defs>
<clipPath id="clip0_403_8800">
<rect width="30" height="35" fill="white" transform="translate(0.5)"/>
</clipPath>
</defs>
</svg>
