<svg width="281" height="131" viewBox="0 0 281 131" fill="none" xmlns="http://www.w3.org/2000/svg">
<path d="M268.61 129H11.3827C5.12605 129 0 124.303 0 118.555V19.4451C0 13.6968 5.11841 9 11.3827 9H268.617C274.874 9 280 13.6968 280 19.4451V118.555C279.992 124.303 274.874 129 268.61 129Z" fill="#2979FF"/>
<path d="M242.729 108.835H89.452C87.727 108.835 86.3086 107.427 86.3086 105.698V86.5962C86.3086 84.8744 87.7193 83.4586 89.452 83.4586H242.737C244.462 83.4586 245.88 84.8667 245.88 86.5962V105.698C245.872 107.419 244.462 108.835 242.729 108.835Z" fill="white"/>
<path d="M42.2008 96.9656C42.2008 97.5089 42.0705 98.0906 41.8021 98.7181C41.5338 99.3456 41.1198 99.9655 40.5448 100.57C39.9697 101.175 39.2414 101.664 38.352 102.047C37.4627 102.422 36.4276 102.613 35.2469 102.613C34.3499 102.613 33.5372 102.529 32.8012 102.361C32.0652 102.192 31.3981 101.925 30.8001 101.565C30.2021 101.205 29.6501 100.731 29.1441 100.149C28.6994 99.6135 28.316 99.0242 27.994 98.3584C27.6797 97.7003 27.442 96.9962 27.281 96.2462C27.12 95.4963 27.0433 94.7004 27.0433 93.8586C27.0433 92.4964 27.2427 91.2719 27.6414 90.1929C28.04 89.1139 28.6074 88.1879 29.3511 87.4226C30.0948 86.6573 30.9611 86.0681 31.9578 85.6701C32.9545 85.2722 34.0202 85.0656 35.1473 85.0656C36.5196 85.0656 37.7463 85.3411 38.8197 85.8844C39.8931 86.4354 40.7211 87.1088 41.2885 87.9124C41.8635 88.7159 42.1471 89.4812 42.1471 90.2006C42.1471 90.5908 42.0091 90.9429 41.7331 91.2413C41.4571 91.5398 41.1198 91.6928 40.7211 91.6928C40.2841 91.6928 39.9467 91.5857 39.7321 91.3791C39.5097 91.1725 39.2644 90.8128 38.9961 90.3C38.5514 89.4582 38.0224 88.8307 37.4167 88.4098C36.811 87.9966 36.0596 87.7823 35.1703 87.7823C33.7519 87.7823 32.6325 88.318 31.7892 89.3894C30.9535 90.4608 30.5318 91.9837 30.5318 93.9581C30.5318 95.2743 30.7158 96.3763 31.0915 97.2487C31.4595 98.1212 31.9885 98.7793 32.6708 99.2079C33.3532 99.6364 34.1506 99.8583 35.0629 99.8583C36.052 99.8583 36.8876 99.6135 37.57 99.1237C38.2524 98.6339 38.7737 97.9145 39.1187 96.9656C39.2644 96.5217 39.4484 96.1544 39.6631 95.8713C39.8777 95.5881 40.2304 95.4504 40.7058 95.4504C41.1121 95.4504 41.4648 95.5958 41.7638 95.8789C42.0551 96.185 42.2008 96.537 42.2008 96.9656Z" fill="white"/>
<path d="M48.0506 86.9865V91.6777C48.4493 91.2185 48.848 90.8512 49.2313 90.5757C49.6147 90.3078 50.0363 90.1012 50.504 89.9711C50.964 89.8333 51.4701 89.7721 51.9991 89.7721C52.8041 89.7721 53.5171 89.9405 54.1381 90.2849C54.7592 90.6216 55.2498 91.119 55.6025 91.7695C55.8249 92.1445 55.9782 92.573 56.0549 93.0398C56.1315 93.5067 56.1699 94.0424 56.1699 94.6546V100.708C56.1699 101.343 56.0242 101.818 55.7329 102.147C55.4415 102.468 55.0582 102.636 54.5828 102.636C53.5401 102.636 53.0188 101.994 53.0188 100.716V95.3816C53.0188 94.3714 52.8654 93.5908 52.5664 93.0475C52.2674 92.5042 51.6924 92.2287 50.849 92.2287C50.2817 92.2287 49.7757 92.3894 49.3233 92.7108C48.871 93.0322 48.5336 93.4684 48.3113 94.0271C48.1426 94.5015 48.0583 95.3357 48.0583 96.5372V100.716C48.0583 101.343 47.9203 101.818 47.6366 102.147C47.3529 102.476 46.9619 102.636 46.4559 102.636C45.4132 102.636 44.8918 101.994 44.8918 100.716V87.0095C44.8918 86.3666 45.0298 85.8922 45.3059 85.5707C45.5819 85.2493 45.9652 85.0886 46.4559 85.0886C46.9619 85.0886 47.3529 85.2493 47.6366 85.5784C47.9126 85.8769 48.0506 86.3513 48.0506 86.9865Z" fill="white"/>
<path d="M60.7854 88.2951C60.3484 88.2951 59.965 88.1573 59.6583 87.8895C59.344 87.6216 59.1906 87.239 59.1906 86.7416C59.1906 86.2977 59.3517 85.9227 59.6737 85.6396C59.9957 85.3488 60.3637 85.2034 60.793 85.2034C61.1994 85.2034 61.5674 85.3335 61.8817 85.5937C62.1961 85.8539 62.3571 86.2365 62.3571 86.7416C62.3571 87.2314 62.2037 87.6063 61.8971 87.8818C61.5751 88.1573 61.207 88.2951 60.7854 88.2951ZM62.3494 91.5552V100.685C62.3494 101.32 62.1961 101.795 61.8971 102.124C61.5981 102.453 61.2147 102.613 60.747 102.613C60.2793 102.613 59.9037 102.445 59.62 102.116C59.3287 101.787 59.183 101.312 59.183 100.693V91.6546C59.183 91.0271 59.3287 90.5603 59.62 90.2389C59.9113 89.9251 60.287 89.7644 60.747 89.7644C61.207 89.7644 61.5904 89.9251 61.8971 90.2389C62.1961 90.5527 62.3494 90.9965 62.3494 91.5552Z" fill="white"/>
<path d="M65.5006 100.693V86.9865C65.5006 86.3513 65.6386 85.8768 65.9223 85.5478C66.206 85.2263 66.5816 85.058 67.0647 85.058C67.5477 85.058 67.931 85.2187 68.2224 85.5401C68.5137 85.8615 68.6594 86.3436 68.6594 86.9788V100.685C68.6594 101.328 68.5137 101.802 68.2147 102.124C67.9157 102.445 67.5323 102.606 67.0647 102.606C66.6046 102.606 66.2213 102.437 65.9376 102.108C65.6463 101.779 65.5006 101.305 65.5006 100.693Z" fill="white"/>
<path d="M80.4894 100.807V100.494C80.0677 100.983 79.646 101.374 79.232 101.68C78.818 101.986 78.3733 102.215 77.8903 102.376C77.4073 102.537 76.8782 102.613 76.3109 102.613C75.5519 102.613 74.8542 102.453 74.2102 102.131C73.5661 101.81 73.0064 101.351 72.5311 100.761C72.0558 100.164 71.7031 99.4681 71.4577 98.6645C71.2124 97.861 71.0897 96.9962 71.0897 96.0626C71.0897 94.0882 71.5727 92.55 72.5388 91.448C73.5048 90.346 74.7775 89.795 76.3569 89.795C77.2692 89.795 78.0359 89.9481 78.6646 90.2618C79.2933 90.5756 79.899 91.0577 80.497 91.7005V87.04C80.497 86.3895 80.6274 85.8997 80.888 85.5707C81.1487 85.2416 81.5167 85.0732 81.9921 85.0732C82.4751 85.0732 82.8431 85.2263 83.0961 85.5324C83.3568 85.8385 83.4871 86.29 83.4871 86.8793V100.815C83.4871 101.42 83.3491 101.871 83.0731 102.17C82.7971 102.468 82.4368 102.621 81.9921 102.621C81.5627 102.621 81.2024 102.468 80.9187 102.154C80.6274 101.833 80.4894 101.381 80.4894 100.807ZM74.2638 96.1621C74.2638 97.0192 74.3942 97.7462 74.6625 98.3508C74.9308 98.9554 75.2912 99.4069 75.7589 99.713C76.2189 100.019 76.7326 100.172 77.2769 100.172C77.8366 100.172 78.3426 100.027 78.8026 99.7359C79.2626 99.4451 79.6307 99.0013 79.9067 98.4044C80.1827 97.8074 80.3207 97.0575 80.3207 96.1621C80.3207 95.3203 80.1827 94.6009 79.9067 93.9887C79.6307 93.3841 79.2626 92.9173 78.795 92.6036C78.3273 92.2821 77.8136 92.1214 77.2616 92.1214C76.6789 92.1214 76.1652 92.2821 75.7052 92.6112C75.2452 92.9403 74.8925 93.4071 74.6472 94.027C74.3865 94.6468 74.2638 95.3586 74.2638 96.1621Z" fill="white"/>
<path d="M97.6555 95.6189H94.5351V100.364C94.5351 101.045 94.3741 101.557 94.0521 101.909C93.7301 102.262 93.3237 102.438 92.8407 102.438C92.327 102.438 91.913 102.262 91.6064 101.917C91.292 101.573 91.1387 101.06 91.1387 100.387V87.4611C91.1387 86.7111 91.3073 86.1831 91.6524 85.8616C91.9974 85.5402 92.5417 85.3795 93.2931 85.3795H97.6632C98.9513 85.3795 99.948 85.479 100.646 85.678C101.336 85.8693 101.926 86.1831 102.424 86.6269C102.923 87.0708 103.306 87.6141 103.567 88.2493C103.827 88.8921 103.958 89.6115 103.958 90.415C103.958 92.1216 103.429 93.4149 102.378 94.3026C101.313 95.1751 99.7409 95.6189 97.6555 95.6189ZM96.8352 87.9279H94.5428V93.0552H96.8352C97.6402 93.0552 98.3072 92.9711 98.8439 92.8027C99.3806 92.6343 99.7946 92.3588 100.078 91.9762C100.362 91.5936 100.5 91.0961 100.5 90.4763C100.5 89.7339 100.285 89.137 99.8483 88.6702C99.3576 88.1728 98.3532 87.9279 96.8352 87.9279Z" fill="#2979FF"/>
<path d="M109.562 97.93V100.54C109.562 101.175 109.417 101.649 109.118 101.963C108.819 102.277 108.443 102.438 107.983 102.438C107.531 102.438 107.163 102.277 106.871 101.955C106.58 101.634 106.434 101.16 106.434 100.54V91.8461C106.434 90.4456 106.94 89.7416 107.96 89.7416C108.481 89.7416 108.857 89.9023 109.087 90.2314C109.317 90.5604 109.44 91.0425 109.463 91.6854C109.838 91.0425 110.222 90.5604 110.613 90.2314C111.004 89.9023 111.533 89.7416 112.192 89.7416C112.851 89.7416 113.488 89.9023 114.109 90.2314C114.73 90.5604 115.036 90.9966 115.036 91.5323C115.036 91.915 114.906 92.2287 114.638 92.4736C114.377 92.7185 114.086 92.8486 113.787 92.8486C113.672 92.8486 113.396 92.7797 112.959 92.6343C112.522 92.4966 112.131 92.42 111.793 92.42C111.333 92.42 110.958 92.5425 110.666 92.7797C110.375 93.017 110.153 93.3766 109.992 93.8511C109.831 94.3256 109.723 94.8842 109.662 95.5424C109.593 96.1929 109.562 96.9887 109.562 97.93Z" fill="#2979FF"/>
<path d="M127.442 96.0857C127.442 97.0194 127.296 97.8765 127.005 98.657C126.713 99.4453 126.292 100.119 125.747 100.685C125.195 101.251 124.543 101.68 123.777 101.986C123.01 102.284 122.151 102.438 121.201 102.438C120.25 102.438 119.399 102.284 118.648 101.978C117.889 101.672 117.237 101.236 116.685 100.67C116.133 100.103 115.711 99.43 115.428 98.657C115.144 97.8841 114.998 97.027 114.998 96.0857C114.998 95.1368 115.144 94.272 115.435 93.4914C115.727 92.7032 116.141 92.0374 116.685 91.4788C117.229 90.9201 117.881 90.4915 118.655 90.1931C119.43 89.8946 120.281 89.7416 121.208 89.7416C122.159 89.7416 123.018 89.8946 123.784 90.2007C124.559 90.5069 125.218 90.9431 125.77 91.5017C126.322 92.068 126.736 92.7338 127.028 93.5144C127.319 94.295 127.442 95.1444 127.442 96.0857ZM124.298 96.0857C124.298 94.8154 124.014 93.8205 123.455 93.1088C122.895 92.3971 122.136 92.0451 121.193 92.0451C120.58 92.0451 120.043 92.2058 119.575 92.5195C119.108 92.8333 118.747 93.3001 118.494 93.92C118.241 94.5399 118.119 95.2592 118.119 96.0857C118.119 96.9046 118.241 97.6163 118.494 98.2285C118.74 98.8407 119.1 99.3075 119.56 99.6289C120.02 99.9504 120.564 100.119 121.193 100.119C122.144 100.119 122.895 99.759 123.455 99.0473C124.022 98.328 124.298 97.3408 124.298 96.0857Z" fill="#2979FF"/>
<path d="M141.296 92.0221V101.091C141.296 102.131 141.188 103.019 140.966 103.769C140.744 104.519 140.391 105.131 139.9 105.621C139.41 106.111 138.773 106.471 137.983 106.708C137.194 106.945 136.212 107.06 135.032 107.06C133.951 107.06 132.992 106.907 132.141 106.608C131.29 106.31 130.639 105.92 130.179 105.445C129.719 104.971 129.489 104.481 129.489 103.976C129.489 103.593 129.619 103.287 129.88 103.042C130.14 102.805 130.455 102.682 130.823 102.682C131.283 102.682 131.681 102.881 132.026 103.287C132.195 103.494 132.371 103.7 132.548 103.907C132.724 104.114 132.923 104.297 133.146 104.443C133.36 104.588 133.629 104.703 133.928 104.772C134.234 104.841 134.587 104.879 134.986 104.879C135.798 104.879 136.427 104.764 136.872 104.542C137.316 104.32 137.631 103.999 137.815 103.601C137.991 103.195 138.098 102.767 138.129 102.3C138.16 101.841 138.183 101.098 138.198 100.073C137.715 100.746 137.163 101.251 136.527 101.603C135.898 101.955 135.147 102.131 134.273 102.131C133.222 102.131 132.31 101.864 131.528 101.328C130.746 100.792 130.14 100.05 129.726 99.0857C129.305 98.1214 129.098 97.0118 129.098 95.7567C129.098 94.8154 129.228 93.9736 129.481 93.216C129.734 92.4584 130.102 91.8232 130.577 91.3028C131.053 90.7824 131.597 90.3921 132.218 90.1319C132.839 89.8717 133.514 89.734 134.257 89.734C135.147 89.734 135.913 89.9023 136.557 90.2467C137.209 90.5834 137.807 91.1191 138.367 91.8461V91.4252C138.367 90.8819 138.497 90.461 138.766 90.1702C139.034 89.8717 139.379 89.7263 139.801 89.7263C140.406 89.7263 140.805 89.9253 141.004 90.3156C141.196 90.7212 141.296 91.2875 141.296 92.0221ZM132.226 95.9786C132.226 97.2413 132.502 98.2056 133.054 98.8484C133.606 99.4989 134.326 99.8203 135.2 99.8203C135.722 99.8203 136.212 99.6826 136.672 99.3994C137.132 99.1239 137.508 98.703 137.799 98.1444C138.091 97.5857 138.236 96.9046 138.236 96.1011C138.236 94.8307 137.953 93.8359 137.393 93.1241C136.833 92.4124 136.09 92.0604 135.177 92.0604C134.28 92.0604 133.567 92.3971 133.031 93.0782C132.494 93.767 132.226 94.7312 132.226 95.9786Z" fill="#2979FF"/>
<path d="M147.138 97.93V100.54C147.138 101.175 146.992 101.649 146.693 101.963C146.394 102.277 146.018 102.438 145.558 102.438C145.106 102.438 144.738 102.277 144.447 101.955C144.155 101.634 144.01 101.16 144.01 100.54V91.8461C144.01 90.4456 144.516 89.7416 145.535 89.7416C146.057 89.7416 146.433 89.9023 146.663 90.2314C146.893 90.5604 147.015 91.0425 147.038 91.6854C147.414 91.0425 147.797 90.5604 148.188 90.2314C148.579 89.9023 149.108 89.7416 149.768 89.7416C150.427 89.7416 151.063 89.9023 151.684 90.2314C152.305 90.5604 152.612 90.9966 152.612 91.5323C152.612 91.915 152.482 92.2287 152.213 92.4736C151.953 92.7185 151.661 92.8486 151.362 92.8486C151.247 92.8486 150.971 92.7797 150.534 92.6343C150.097 92.4966 149.706 92.42 149.369 92.42C148.909 92.42 148.533 92.5425 148.242 92.7797C147.951 93.017 147.728 93.3766 147.567 93.8511C147.406 94.3256 147.299 94.8842 147.238 95.5424C147.169 96.1929 147.138 96.9887 147.138 97.93Z" fill="#2979FF"/>
<path d="M161.521 100.67C160.762 101.259 160.034 101.695 159.328 101.994C158.623 102.284 157.825 102.438 156.951 102.438C156.146 102.438 155.441 102.277 154.835 101.963C154.23 101.649 153.762 101.221 153.432 100.677C153.103 100.134 152.942 99.5524 152.942 98.9172C152.942 98.0601 153.21 97.3331 153.754 96.7286C154.299 96.124 155.042 95.7184 155.993 95.5194C156.192 95.4735 156.683 95.374 157.473 95.2133C158.262 95.0526 158.937 94.9072 159.497 94.7695C160.057 94.6394 160.67 94.471 161.322 94.2797C161.283 93.4532 161.115 92.8486 160.823 92.466C160.532 92.0833 159.919 91.892 158.999 91.892C158.201 91.892 157.603 91.9991 157.204 92.2211C156.806 92.443 156.461 92.7721 156.169 93.2159C155.886 93.6598 155.679 93.9506 155.564 94.0884C155.449 94.2261 155.188 94.3026 154.805 94.3026C154.452 94.3026 154.153 94.1878 153.892 93.9659C153.639 93.744 153.509 93.4532 153.509 93.1011C153.509 92.5501 153.701 92.0145 154.092 91.5017C154.483 90.9813 155.088 90.5528 155.916 90.2237C156.744 89.887 157.772 89.7186 158.999 89.7186C160.371 89.7186 161.452 89.8793 162.242 90.2084C163.031 90.5298 163.583 91.0426 163.913 91.7466C164.235 92.4507 164.404 93.3766 164.404 94.5399C164.404 95.2745 164.404 95.8944 164.396 96.4071C164.388 96.9199 164.388 97.4862 164.381 98.1137C164.381 98.703 164.48 99.3152 164.672 99.9504C164.864 100.586 164.963 100.999 164.963 101.182C164.963 101.504 164.81 101.795 164.511 102.055C164.212 102.315 163.867 102.453 163.484 102.453C163.162 102.453 162.847 102.3 162.533 102.001C162.203 101.68 161.866 101.244 161.521 100.67ZM161.314 96.1546C160.854 96.323 160.187 96.499 159.313 96.6903C158.439 96.874 157.833 97.0117 157.496 97.1035C157.158 97.1877 156.836 97.3637 156.53 97.6163C156.223 97.8688 156.07 98.2285 156.07 98.6877C156.07 99.1621 156.246 99.5601 156.606 99.8968C156.967 100.226 157.434 100.394 158.017 100.394C158.638 100.394 159.206 100.256 159.727 99.9886C160.248 99.7208 160.632 99.3688 160.877 98.9402C161.161 98.4657 161.299 97.6928 161.299 96.6061V96.1546H161.314Z" fill="#2979FF"/>
<path d="M177.852 96.3153V100.471C177.852 101.129 177.706 101.619 177.407 101.948C177.108 102.277 176.717 102.438 176.226 102.438C175.751 102.438 175.367 102.277 175.076 101.948C174.785 101.619 174.631 101.129 174.631 100.471V95.4965C174.631 94.7082 174.601 94.1037 174.555 93.6674C174.501 93.2312 174.355 92.8792 174.118 92.5961C173.88 92.3206 173.504 92.1752 172.991 92.1752C171.963 92.1752 171.289 92.5272 170.967 93.2312C170.645 93.9353 170.476 94.9378 170.476 96.2541V100.478C170.476 101.129 170.33 101.619 170.031 101.948C169.74 102.277 169.349 102.445 168.866 102.445C168.391 102.445 168.007 102.277 167.701 101.948C167.402 101.619 167.248 101.129 167.248 100.478V91.54C167.248 90.9507 167.386 90.5069 167.655 90.2007C167.923 89.8946 168.283 89.7416 168.728 89.7416C169.157 89.7416 169.51 89.887 169.801 90.1701C170.085 90.4533 170.231 90.8512 170.231 91.3563V91.6548C170.775 91.0043 171.358 90.5298 171.971 90.2237C172.592 89.9176 173.274 89.7645 174.033 89.7645C174.823 89.7645 175.498 89.9176 176.065 90.2314C176.632 90.5451 177.1 91.0196 177.46 91.6471C177.99 91.0043 178.557 90.5298 179.155 90.2237C179.761 89.9176 180.428 89.7569 181.164 89.7569C182.022 89.7569 182.758 89.9252 183.379 90.262C184 90.5987 184.46 91.0808 184.767 91.7007C185.035 92.267 185.166 93.1547 185.166 94.3638V100.463C185.166 101.121 185.02 101.611 184.721 101.94C184.422 102.269 184.031 102.43 183.54 102.43C183.065 102.43 182.682 102.261 182.375 101.932C182.076 101.603 181.923 101.114 181.923 100.463V95.2133C181.923 94.5399 181.892 94.0042 181.838 93.5986C181.785 93.193 181.624 92.8563 181.371 92.5808C181.118 92.3053 180.734 92.1675 180.228 92.1675C179.814 92.1675 179.423 92.2899 179.055 92.5348C178.687 92.7797 178.396 93.1088 178.189 93.522C177.967 94.0501 177.852 94.9761 177.852 96.3153Z" fill="#2979FF"/>
<path d="M198.498 96.3153V100.471C198.498 101.129 198.353 101.619 198.054 101.948C197.755 102.277 197.364 102.438 196.873 102.438C196.398 102.438 196.014 102.277 195.723 101.948C195.432 101.619 195.278 101.129 195.278 100.471V95.4965C195.278 94.7082 195.248 94.1037 195.202 93.6674C195.148 93.2312 195.002 92.8792 194.765 92.5961C194.527 92.3206 194.151 92.1752 193.638 92.1752C192.61 92.1752 191.936 92.5272 191.614 93.2312C191.292 93.9353 191.123 94.9378 191.123 96.2541V100.478C191.123 101.129 190.977 101.619 190.678 101.948C190.387 102.277 189.996 102.445 189.513 102.445C189.038 102.445 188.654 102.277 188.347 101.948C188.048 101.619 187.895 101.129 187.895 100.478V91.54C187.895 90.9507 188.033 90.5069 188.301 90.2007C188.57 89.8946 188.93 89.7416 189.375 89.7416C189.804 89.7416 190.157 89.887 190.448 90.1701C190.732 90.4533 190.878 90.8512 190.878 91.3563V91.6548C191.422 91.0043 192.005 90.5298 192.618 90.2237C193.239 89.9176 193.921 89.7645 194.68 89.7645C195.47 89.7645 196.145 89.9176 196.712 90.2314C197.279 90.5451 197.747 91.0196 198.107 91.6471C198.636 91.0043 199.204 90.5298 199.802 90.2237C200.408 89.9176 201.075 89.7569 201.811 89.7569C202.669 89.7569 203.405 89.9252 204.026 90.262C204.647 90.5987 205.107 91.0808 205.414 91.7007C205.682 92.267 205.813 93.1547 205.813 94.3638V100.463C205.813 101.121 205.667 101.611 205.368 101.94C205.069 102.269 204.678 102.43 204.187 102.43C203.712 102.43 203.329 102.261 203.022 101.932C202.723 101.603 202.57 101.114 202.57 100.463V95.2133C202.57 94.5399 202.539 94.0042 202.485 93.5986C202.432 93.193 202.271 92.8563 202.018 92.5808C201.765 92.3053 201.381 92.1675 200.875 92.1675C200.461 92.1675 200.07 92.2899 199.702 92.5348C199.334 92.7797 199.043 93.1088 198.836 93.522C198.613 94.0501 198.498 94.9761 198.498 96.3153Z" fill="#2979FF"/>
<path d="M210.321 88.2799C209.884 88.2799 209.516 88.1498 209.201 87.882C208.895 87.6141 208.734 87.2391 208.734 86.7493C208.734 86.3055 208.895 85.9458 209.209 85.655C209.523 85.3718 209.891 85.2264 210.313 85.2264C210.719 85.2264 211.08 85.3565 211.394 85.6167C211.709 85.8769 211.862 86.2519 211.862 86.7493C211.862 87.2315 211.709 87.6064 211.402 87.8743C211.111 88.1498 210.743 88.2799 210.321 88.2799ZM211.87 91.5094V100.532C211.87 101.159 211.724 101.634 211.425 101.948C211.126 102.269 210.75 102.43 210.29 102.43C209.83 102.43 209.462 102.269 209.171 101.94C208.887 101.611 208.741 101.144 208.741 100.532V91.5935C208.741 90.9737 208.887 90.5068 209.171 90.2007C209.454 89.887 209.83 89.7339 210.29 89.7339C210.75 89.7339 211.126 89.887 211.425 90.2007C211.724 90.5145 211.87 90.9507 211.87 91.5094Z" fill="#2979FF"/>
<path d="M217.827 91.4635V91.8384C218.379 91.1114 218.977 90.5834 219.628 90.239C220.28 89.9023 221.031 89.7263 221.882 89.7263C222.71 89.7263 223.447 89.9023 224.098 90.262C224.75 90.6217 225.233 91.1267 225.555 91.7849C225.762 92.1675 225.892 92.5808 225.954 93.017C226.015 93.4608 226.046 94.0271 226.046 94.7082V100.517C226.046 101.144 225.9 101.619 225.616 101.932C225.333 102.254 224.957 102.415 224.497 102.415C224.029 102.415 223.654 102.254 223.362 101.925C223.071 101.596 222.925 101.129 222.925 100.517V95.3128C222.925 94.2797 222.78 93.4991 222.496 92.9481C222.212 92.4047 221.637 92.1292 220.786 92.1292C220.226 92.1292 219.72 92.2976 219.26 92.6267C218.8 92.9557 218.463 93.4149 218.248 93.9965C218.095 94.4633 218.018 95.3281 218.018 96.6061V100.517C218.018 101.152 217.873 101.626 217.574 101.94C217.282 102.254 216.899 102.415 216.431 102.415C215.979 102.415 215.611 102.254 215.32 101.925C215.028 101.596 214.883 101.129 214.883 100.517V91.4941C214.883 90.8972 215.013 90.4533 215.274 90.1625C215.534 89.8717 215.887 89.7186 216.339 89.7186C216.615 89.7186 216.861 89.7799 217.083 89.9099C217.305 90.04 217.482 90.2314 217.62 90.4916C217.765 90.7747 217.827 91.0885 217.827 91.4635Z" fill="#2979FF"/>
<path d="M240.551 92.0221V101.091C240.551 102.131 240.444 103.019 240.222 103.769C239.999 104.519 239.647 105.131 239.156 105.621C238.665 106.111 238.029 106.471 237.239 106.708C236.45 106.945 235.468 107.06 234.288 107.06C233.207 107.06 232.248 106.907 231.397 106.608C230.546 106.31 229.894 105.92 229.434 105.445C228.974 104.971 228.744 104.481 228.744 103.976C228.744 103.593 228.875 103.287 229.135 103.042C229.396 102.805 229.71 102.682 230.078 102.682C230.538 102.682 230.937 102.881 231.282 103.287C231.451 103.494 231.627 103.7 231.804 103.907C231.98 104.114 232.179 104.297 232.402 104.443C232.616 104.588 232.885 104.703 233.184 104.772C233.49 104.841 233.843 104.879 234.242 104.879C235.054 104.879 235.683 104.764 236.128 104.542C236.572 104.32 236.887 103.999 237.071 103.601C237.247 103.195 237.354 102.767 237.385 102.3C237.416 101.841 237.439 101.098 237.454 100.073C236.971 100.746 236.419 101.251 235.783 101.603C235.154 101.955 234.403 102.131 233.529 102.131C232.478 102.131 231.566 101.864 230.784 101.328C230.002 100.792 229.396 100.05 228.982 99.0857C228.56 98.1214 228.353 97.0118 228.353 95.7567C228.353 94.8154 228.484 93.9736 228.737 93.216C228.99 92.4584 229.358 91.8232 229.833 91.3028C230.308 90.7824 230.853 90.3921 231.474 90.1319C232.095 89.8717 232.77 89.734 233.513 89.734C234.403 89.734 235.169 89.9023 235.813 90.2467C236.465 90.5834 237.063 91.1191 237.623 91.8461V91.4252C237.623 90.8819 237.753 90.461 238.021 90.1702C238.29 89.8717 238.635 89.7263 239.056 89.7263C239.662 89.7263 240.061 89.9253 240.26 90.3156C240.452 90.7212 240.551 91.2875 240.551 92.0221ZM231.489 95.9786C231.489 97.2413 231.765 98.2056 232.317 98.8484C232.869 99.4989 233.59 99.8203 234.464 99.8203C234.985 99.8203 235.476 99.6826 235.936 99.3994C236.396 99.1239 236.772 98.703 237.063 98.1444C237.354 97.5857 237.5 96.9046 237.5 96.1011C237.5 94.8307 237.216 93.8359 236.657 93.1241C236.097 92.4124 235.353 92.0604 234.441 92.0604C233.544 92.0604 232.831 92.3971 232.294 93.0782C231.758 93.767 231.489 94.7312 231.489 95.9786Z" fill="#2979FF"/>
<path d="M64.2738 70.0128C70.9057 69.0944 75.4905 66.1711 77.7906 62.2222C77.7829 62.2146 77.7753 62.2146 77.7676 62.2069C76.6636 61.8473 75.9275 61.258 75.9889 60.6534C76.0655 59.8958 77.3612 59.3984 78.9866 59.4443C79.1246 58.9698 79.2396 58.4953 79.324 58.0056C76.3646 57.8678 74.0261 56.3296 74.0031 54.4241C73.9801 52.6333 75.9889 51.1181 78.68 50.7508C78.2199 49.4574 77.5529 48.2177 76.6636 47.0698C76.6789 46.8402 77.7369 31.3357 73.1061 31.3357C68.598 31.3357 63.4305 39.8379 63.1008 40.3889C63.1008 40.3966 63.1008 40.4119 63.1008 40.4195C63.5301 40.4731 63.9518 40.542 64.3582 40.6108C63.7678 42.6924 62.7481 44.1694 61.9661 43.9857C61.2301 43.8097 60.9617 42.2026 61.2761 40.2206C60.6014 40.167 59.9114 40.1211 59.1907 40.0905C58.6463 42.1337 56.4842 46.6718 55.6102 46.6718C54.6979 46.6718 51.2937 42.7 49.8677 40.9935C49.4537 41.1083 49.0473 41.2307 48.641 41.3608C49.0167 43.649 48.388 45.654 47.1996 45.8759C46.1876 46.0673 45.0989 44.9117 44.4932 43.1669C45.2369 42.746 46.0266 42.3633 46.8546 42.019C46.8546 42.019 46.8546 42.019 46.8469 42.019C46.8469 42.019 38.697 33.0805 36.3663 34.2437C34.0355 35.407 31.7048 49.3656 35.2009 51.6997C35.5306 51.9216 35.9063 52.0135 36.3049 51.9982C36.2819 52.0441 36.2666 52.09 36.2513 52.1359C37.7233 52.6716 38.697 53.567 38.5053 54.2787C38.306 55.0133 36.9336 55.2965 35.3389 54.9827C35.1012 56.1 34.9939 57.1944 35.0322 58.2505C37.3016 57.8602 39.3027 58.526 39.6707 59.8805C40.0311 61.2274 38.651 62.7962 36.5043 63.5997C37.3783 65.3752 38.3597 66.6685 38.5437 66.9287C38.5513 66.9287 38.559 66.9287 38.5667 66.9287C39.6707 65.3675 41.4264 64.6864 42.6685 65.3981C43.9028 66.1099 44.2019 67.9542 43.4198 69.676C45.2062 70.1811 47.192 70.3801 49.2927 70.449C46.4636 73.0356 44.4319 76.9997 43.7878 81.599C46.2796 82.8005 48.9553 83.6883 51.7614 84.201C52.0681 79.5175 54.5522 75.8595 57.5806 75.8595C60.6014 75.8595 63.0931 79.5098 63.3998 84.1857C65.8149 83.7342 68.1303 83.0148 70.3154 82.0506C69.7403 76.9997 67.4633 72.6606 64.2738 70.0128ZM71.9407 33.6698C73.1061 33.6698 74.4632 34.6723 75.5365 45.7994C75.8739 46.1438 76.1959 46.4958 76.4872 46.8555C75.1608 48.7916 73.6275 49.9396 72.8531 49.4957C71.9867 48.9983 72.3701 46.6948 73.6965 44.2918C72.1094 43.1363 70.1697 42.1644 67.8159 41.445C67.8159 41.4297 67.8159 41.422 67.8159 41.422C67.8159 41.422 70.7754 33.6698 71.9407 33.6698ZM42.5688 44.5061C39.8624 46.4346 37.892 48.8376 36.6346 51.3477C36.4123 51.4012 36.2129 51.3859 36.0519 51.2711C34.3729 50.1538 35.7299 37.1518 36.9796 37.1518C39.3104 37.1518 42.8065 44.1311 42.8065 44.1311C42.8065 44.1311 42.7145 44.2765 42.5688 44.5061Z" fill="white"/>
<path d="M59.8806 55.9699C61.8115 55.9699 63.3767 55.4491 63.3767 54.8067C63.3767 54.1642 61.8115 53.6434 59.8806 53.6434C57.9498 53.6434 56.3845 54.1642 56.3845 54.8067C56.3845 55.4491 57.9498 55.9699 59.8806 55.9699Z" fill="#2979FF"/>
<path d="M58.7766 60.9977C58.5236 60.9977 58.2706 60.9365 58.0405 60.8217C57.4119 60.4927 57.0515 59.7809 57.0515 58.8703H57.8105C57.8105 59.4901 58.0252 59.957 58.3932 60.1559C58.6769 60.309 59.0372 60.2707 59.3209 60.0718C59.7349 59.7809 59.9189 59.2299 59.8269 58.5489V58.5182L59.6736 55.8474L60.4326 55.8015L60.586 58.457C60.7086 59.4213 60.4096 60.2325 59.7579 60.684C59.4589 60.8906 59.1139 60.9977 58.7766 60.9977Z" fill="#2979FF"/>
<path d="M61.644 60.7682C61.391 60.7682 61.138 60.707 60.908 60.5922C60.2793 60.2631 59.9189 59.5514 59.9189 58.6408H60.678C60.678 59.2606 60.8926 59.7274 61.2607 59.9264C61.5443 60.0718 61.9047 60.0412 62.1884 59.8422C62.6024 59.5514 62.7864 59.0004 62.6944 58.3193L63.4457 58.2198C63.5761 59.1917 63.2694 60.0029 62.6177 60.4621C62.3264 60.6611 61.9813 60.7682 61.644 60.7682Z" fill="#2979FF"/>
<path d="M50.6343 55.6715C51.6336 55.6715 52.4437 54.4586 52.4437 52.9624C52.4437 51.4662 51.6336 50.2533 50.6343 50.2533C49.635 50.2533 48.825 51.4662 48.825 52.9624C48.825 54.4586 49.635 55.6715 50.6343 55.6715Z" fill="#2979FF"/>
<path d="M67.4938 54.7302C68.4931 54.7302 69.3032 53.5173 69.3032 52.0211C69.3032 50.5249 68.4931 49.312 67.4938 49.312C66.4945 49.312 65.6844 50.5249 65.6844 52.0211C65.6844 53.5173 66.4945 54.7302 67.4938 54.7302Z" fill="#2979FF"/>
<path d="M156.384 81.7444C158.569 82.7087 160.885 83.428 163.3 83.8795C163.606 79.196 166.09 75.5533 169.119 75.5533C172.147 75.5533 174.631 79.2113 174.938 83.8948C177.744 83.3744 180.42 82.4944 182.912 81.2929C182.268 76.7012 180.244 72.7295 177.407 70.1428C179.508 70.0739 181.486 69.875 183.28 69.3699C182.505 67.648 182.797 65.8037 184.031 65.092C185.273 64.3803 187.036 65.0614 188.133 66.6225C188.14 66.6225 188.148 66.6225 188.156 66.6225C188.34 66.3624 189.321 65.069 190.195 63.2936C188.048 62.4901 186.668 60.9212 187.029 59.5744C187.397 58.2198 189.39 57.554 191.667 57.9443C191.706 56.8882 191.598 55.7939 191.361 54.6766C189.758 54.9903 188.393 54.7072 188.194 53.9725C188.002 53.2608 188.984 52.3578 190.448 51.8298C190.425 51.7838 190.41 51.7379 190.395 51.692C190.801 51.7073 191.169 51.6155 191.499 51.3935C194.995 49.0671 192.664 35.1085 190.333 33.9376C188.002 32.7744 179.86 41.7128 179.853 41.7128C179.853 41.7128 179.853 41.7128 179.845 41.7128C180.673 42.0572 181.463 42.4398 182.206 42.8607C181.608 44.6055 180.512 45.7535 179.5 45.5698C178.311 45.3479 177.683 43.3505 178.058 41.0547C177.66 40.9246 177.253 40.8021 176.832 40.6873C175.413 42.3939 172.009 46.3657 171.089 46.3657C170.215 46.3657 168.053 41.8199 167.509 39.7843C166.788 39.8073 166.098 39.8532 165.423 39.9144C165.745 41.8965 165.477 43.5035 164.733 43.6796C163.959 43.8632 162.932 42.3862 162.341 40.3047C162.748 40.2358 163.169 40.1746 163.599 40.1134C163.599 40.1057 163.599 40.0904 163.599 40.0828C163.269 39.5318 158.101 31.0295 153.593 31.0295C148.963 31.0295 150.021 46.534 150.036 46.7636C149.147 47.9115 148.487 49.1513 148.02 50.4446C150.703 50.8043 152.719 52.3195 152.696 54.1179C152.673 56.0311 150.335 57.5693 147.375 57.6994C147.46 58.1892 147.575 58.6637 147.713 59.1381C149.338 59.0846 150.634 59.5897 150.711 60.3473C150.772 60.9518 150.036 61.5411 148.932 61.9008C148.924 61.9084 148.917 61.9084 148.909 61.9161C151.217 65.8573 155.794 68.7883 162.426 69.7066C159.259 72.3468 156.982 76.6859 156.384 81.7444ZM158.914 41.1159C158.914 41.1159 158.914 41.1235 158.914 41.1388C156.56 41.8582 154.613 42.8301 153.034 43.9857C154.368 46.3886 154.751 48.6921 153.877 49.1895C153.095 49.6411 151.569 48.4931 150.243 46.5493C150.534 46.1897 150.856 45.8376 151.194 45.4933C152.259 34.3661 153.624 33.3636 154.789 33.3636C155.947 33.356 158.914 41.1159 158.914 41.1159ZM183.924 43.8326C183.924 43.8326 187.42 36.8533 189.751 36.8533C191 36.8533 192.357 49.8553 190.678 50.9726C190.51 51.0798 190.318 51.1027 190.096 51.0492C188.838 48.5391 186.86 46.1361 184.161 44.2076C184.008 43.9627 183.924 43.8326 183.924 43.8326Z" fill="white"/>
<path d="M166.842 55.6562C168.773 55.6562 170.338 55.1354 170.338 54.4929C170.338 53.8505 168.773 53.3297 166.842 53.3297C164.911 53.3297 163.346 53.8505 163.346 54.4929C163.346 55.1354 164.911 55.6562 166.842 55.6562Z" fill="#2979FF"/>
<path d="M167.946 60.684C168.199 60.684 168.452 60.6228 168.682 60.508C169.311 60.1789 169.671 59.4672 169.671 58.5566H168.912C168.912 59.1764 168.697 59.6432 168.329 59.8422C168.046 59.9953 167.685 59.957 167.402 59.758C166.988 59.4672 166.803 58.9162 166.895 58.2351V58.2045L167.049 55.5337L166.29 55.4878L166.136 58.1433C166.014 59.1076 166.313 59.9187 166.965 60.3703C167.264 60.5769 167.609 60.684 167.946 60.684Z" fill="#2979FF"/>
<path d="M165.078 60.4621C165.331 60.4621 165.584 60.4008 165.814 60.2861C166.443 59.957 166.803 59.2453 166.803 58.3346H166.044C166.044 58.9545 165.83 59.4213 165.462 59.6203C165.178 59.7657 164.818 59.7351 164.534 59.5361C164.12 59.2453 163.936 58.6943 164.028 58.0132L163.277 57.9137C163.146 58.8856 163.453 59.6968 164.105 60.156C164.396 60.3549 164.741 60.4621 165.078 60.4621Z" fill="#2979FF"/>
<path d="M160.064 53.0236C160.294 51.7992 159.482 50.613 158.247 50.3834C157.649 50.2686 157.051 50.3987 156.553 50.7431C156.054 51.0875 155.717 51.6002 155.61 52.1971L156.537 52.3655C156.599 52.0211 156.798 51.715 157.089 51.516C157.381 51.317 157.733 51.2405 158.086 51.3094C158.807 51.4395 159.282 52.1359 159.144 52.8553L160.064 53.0236Z" fill="#2979FF"/>
<path d="M174.662 54.5694H175.605C175.605 53.8424 176.203 53.2455 176.931 53.2455C177.66 53.2455 178.258 53.8424 178.258 54.5694H179.201C179.201 53.322 178.181 52.3042 176.931 52.3042C175.682 52.3042 174.662 53.322 174.662 54.5694Z" fill="#2979FF"/>
<path d="M119.123 68.8419C125.755 67.9235 130.34 65.0002 132.64 61.0514C132.632 61.0437 132.624 61.0437 132.617 61.036C131.513 60.6764 130.777 60.0871 130.838 59.4825C130.915 58.7249 132.21 58.2275 133.836 58.2734C133.974 57.7989 134.089 57.3245 134.173 56.8347C131.214 56.6969 128.875 55.1587 128.852 53.2532C128.829 51.4624 130.838 49.9472 133.529 49.5799C133.069 48.2865 132.402 47.0468 131.513 45.8989C131.528 45.6693 132.586 30.1648 127.955 30.1648C123.447 30.1648 118.28 38.667 117.95 39.218C117.95 39.2257 117.95 39.241 117.95 39.2486C118.379 39.3022 118.801 39.3711 119.207 39.4399C118.617 41.5215 117.597 42.9985 116.815 42.8148C116.079 42.6388 115.811 41.0317 116.125 39.0497C115.45 38.9961 114.76 38.9502 114.04 38.9196C113.495 40.9628 111.333 45.5009 110.459 45.5009C109.547 45.5009 106.143 41.5292 104.717 39.8226C104.303 39.9374 103.896 40.0598 103.49 40.1899C103.866 42.4781 103.237 44.4831 102.049 44.705C101.037 44.8964 99.948 43.7408 99.3423 41.996C100.086 41.5751 100.876 41.1924 101.704 40.8481C101.704 40.8481 101.704 40.8481 101.696 40.8481C101.696 40.8481 93.5461 31.9096 91.2154 33.0728C88.8847 34.2361 86.5539 48.1947 90.05 50.5288C90.3797 50.7507 90.7554 50.8426 91.1541 50.8273C91.1311 50.8732 91.1157 50.9191 91.1004 50.965C92.5724 51.5007 93.5461 52.3961 93.3545 53.1078C93.1551 53.8424 91.7827 54.1256 90.188 53.8118C89.9504 54.9291 89.843 56.0235 89.8813 57.0796C92.1508 56.6893 94.1518 57.3551 94.5198 58.7096C94.8802 60.0565 93.5001 61.6253 91.3534 62.4288C92.2274 64.2043 93.2088 65.4976 93.3928 65.7578C93.4005 65.7578 93.4081 65.7578 93.4158 65.7578C94.5198 64.1966 96.2756 63.5155 97.5176 64.2272C98.752 64.939 99.051 66.7833 98.269 68.5051C100.055 69.0102 102.041 69.2092 104.142 69.2781C101.313 71.8647 99.281 75.8288 98.637 80.4282C101.129 81.6296 103.804 82.5174 106.611 83.0301C106.917 78.3466 109.401 74.6886 112.43 74.6886C115.451 74.6886 117.942 78.3389 118.249 83.0148C120.664 82.5633 122.979 81.8439 125.164 80.8797C124.589 75.8212 122.312 71.4821 119.123 68.8419ZM126.79 32.4912C127.955 32.4912 129.312 33.4937 130.386 44.6209C130.723 44.9652 131.045 45.3173 131.336 45.6769C130.01 47.6131 128.477 48.761 127.702 48.3172C126.836 47.8197 127.219 45.5162 128.546 43.1133C126.959 41.9577 125.019 40.9858 122.665 40.2664C122.665 40.2511 122.665 40.2435 122.665 40.2435C122.665 40.2435 125.624 32.4912 126.79 32.4912ZM97.4103 43.3352C94.7038 45.2637 92.7334 47.6667 91.4761 50.1768C91.2537 50.2303 91.0544 50.215 90.8934 50.1002C89.2143 48.9829 90.5714 35.9809 91.8211 35.9809C94.1518 35.9809 97.6479 42.9602 97.6479 42.9602C97.6479 42.9602 97.5636 43.098 97.4103 43.3352Z" fill="white"/>
<path d="M120.886 52.3885C120.656 51.164 121.469 49.9779 122.703 49.7483C123.301 49.6335 123.899 49.7636 124.398 50.108C124.896 50.4523 125.233 50.9651 125.341 51.562L124.413 51.7303C124.352 51.386 124.152 51.0799 123.861 50.8809C123.57 50.6819 123.217 50.6054 122.864 50.6743C122.144 50.8044 121.668 51.5008 121.806 52.2201L120.886 52.3885Z" fill="#2979FF"/>
<path d="M106.289 53.9343H105.346C105.346 53.2073 104.748 52.6104 104.019 52.6104C103.291 52.6104 102.693 53.2073 102.693 53.9343H101.75C101.75 52.6869 102.769 51.6691 104.019 51.6691C105.269 51.6691 106.289 52.6869 106.289 53.9343Z" fill="#2979FF"/>
<path d="M115.059 54.3399C116.608 54.3399 117.866 53.4752 117.866 52.8553C117.866 52.2354 117.866 51.7303 115.059 51.7303C112.253 51.7303 112.253 52.2354 112.253 52.8553C112.253 53.4752 113.511 54.3399 115.059 54.3399Z" fill="#2979FF"/>
<path d="M119.261 55.5874L115.573 55.7863V54.34H114.538V55.8016H115.22L111.004 56.0236C111.004 56.0236 109.248 65.2145 115.757 65.2145C121.385 65.2145 119.261 55.5874 119.261 55.5874Z" fill="#2979FF"/>
<path d="M103.81 60.3735C105.441 60.1147 106.616 58.9845 106.436 57.8492C106.255 56.7138 104.786 56.0032 103.155 56.262C101.524 56.5208 100.349 57.651 100.53 58.7863C100.71 59.9217 102.179 60.6323 103.81 60.3735Z" fill="#2979FF"/>
<path d="M126.297 57.6414C127.928 57.3826 129.104 56.2525 128.923 55.1171C128.742 53.9818 127.274 53.2712 125.643 53.53C124.012 53.7887 122.836 54.9189 123.017 56.0543C123.198 57.1896 124.667 57.9002 126.297 57.6414Z" fill="#2979FF"/>
<path d="M118.694 63.5233C120.074 61.2504 112.675 61.7172 112.246 63.6151C112.736 64.5487 116.999 66.3089 118.694 63.5233Z" fill="white"/>
<path d="M209.056 81.1934C211.241 82.1576 213.556 82.877 215.971 83.3285C216.278 78.645 218.762 75.0023 221.79 75.0023C224.819 75.0023 227.303 78.6603 227.61 83.3438C230.416 82.8234 233.091 81.9434 235.583 80.7419C234.939 76.1502 232.915 72.1784 230.078 69.5918C232.179 69.5229 234.157 69.3239 235.951 68.8189C235.177 67.097 235.468 65.2527 236.703 64.541C237.945 63.8293 239.708 64.5104 240.804 66.0715C240.812 66.0715 240.82 66.0715 240.827 66.0715C241.011 65.8113 241.993 64.518 242.867 62.7426C240.72 61.939 239.34 60.3702 239.7 59.0233C240.068 57.6688 242.062 57.003 244.339 57.3933C244.377 56.3372 244.27 55.2429 244.032 54.1256C242.43 54.4393 241.065 54.1562 240.866 53.4215C240.674 52.7098 241.655 51.8068 243.12 51.2787C243.097 51.2328 243.081 51.1869 243.066 51.141C243.472 51.1563 243.841 51.0645 244.17 50.8425C247.666 48.5161 245.336 34.5574 243.005 33.3866C240.674 32.2233 232.532 41.1618 232.524 41.1618C232.524 41.1618 232.524 41.1618 232.516 41.1618C233.345 41.5062 234.134 41.8888 234.878 42.3097C234.28 44.0545 233.184 45.2024 232.171 45.0188C230.983 44.7968 230.354 42.7995 230.73 40.5036C230.331 40.3735 229.925 40.2511 229.503 40.1363C228.085 41.8429 224.681 45.8147 223.761 45.8147C222.887 45.8147 220.725 41.2689 220.18 39.2333C219.46 39.2562 218.77 39.3022 218.095 39.3634C218.417 41.3454 218.149 42.9525 217.405 43.1285C216.631 43.3122 215.603 41.8352 215.013 39.7537C215.419 39.6848 215.841 39.6236 216.27 39.5623C216.27 39.5547 216.27 39.5394 216.27 39.5317C215.941 38.9807 210.773 30.4785 206.265 30.4785C201.634 30.4785 202.692 45.983 202.708 46.2126C201.818 47.3605 201.159 48.6003 200.691 49.8936C203.375 50.2533 205.391 51.7685 205.368 53.5669C205.345 55.4801 203.007 57.0183 200.047 57.1484C200.131 57.6382 200.246 58.1126 200.384 58.5871C202.01 58.5336 203.306 59.0386 203.382 59.7963C203.444 60.4008 202.708 60.9901 201.604 61.3498C201.596 61.3574 201.588 61.3574 201.581 61.3651C203.888 65.3062 208.465 68.2373 215.097 69.1556C211.931 71.7958 209.654 76.1349 209.056 81.1934ZM211.586 40.5649C211.586 40.5649 211.586 40.5725 211.586 40.5878C209.232 41.3072 207.285 42.2791 205.705 43.4346C207.039 45.8376 207.423 48.1411 206.549 48.6385C205.767 49.09 204.241 47.9421 202.915 45.9983C203.206 45.6386 203.528 45.2866 203.865 44.9422C204.931 33.8151 206.296 32.8126 207.461 32.8126C208.619 32.805 211.586 40.5649 211.586 40.5649ZM236.595 43.2816C236.595 43.2816 240.091 36.3023 242.422 36.3023C243.672 36.3023 245.029 49.3043 243.35 50.4216C243.181 50.5288 242.989 50.5517 242.767 50.4981C241.51 47.988 239.532 45.5851 236.833 43.6566C236.68 43.4117 236.595 43.2816 236.595 43.2816Z" fill="white"/>
<path d="M229.833 54.5617C230.832 54.5617 231.642 53.3488 231.642 51.8526C231.642 50.3564 230.832 49.1436 229.833 49.1436C228.834 49.1436 228.024 50.3564 228.024 51.8526C228.024 53.3488 228.834 54.5617 229.833 54.5617Z" fill="#2979FF"/>
<path d="M212.974 53.6204C213.973 53.6204 214.783 52.4075 214.783 50.9113C214.783 49.4152 213.973 48.2023 212.974 48.2023C211.974 48.2023 211.164 49.4152 211.164 50.9113C211.164 52.4075 211.974 53.6204 212.974 53.6204Z" fill="#2979FF"/>
<path d="M221.499 53.6357C219.95 53.6357 218.693 52.771 218.693 52.1511C218.693 51.5312 218.693 51.0261 221.499 51.0261C224.305 51.0261 224.305 51.5312 224.305 52.1511C224.305 52.771 223.048 53.6357 221.499 53.6357Z" fill="#2979FF"/>
<path d="M217.298 54.8831L220.985 55.0821V53.6357H222.02V55.0974H221.338L225.555 55.3193C225.555 55.3193 227.311 64.5103 220.801 64.5103C215.174 64.518 217.298 54.8831 217.298 54.8831Z" fill="#2979FF"/>
<path d="M217.865 62.819C216.485 60.5462 223.884 61.013 224.313 62.9109C223.822 63.8522 219.559 65.6046 217.865 62.819Z" fill="#2979FF"/>
</svg>
